<?xml version="1.0" encoding="UTF-8"?>
<svg version="1.1" xmlns="http://www.w3.org/2000/svg" width="281" height="280">
<path d="M0 0 C92.73 0 185.46 0 281 0 C281 92.4 281 184.8 281 280 C188.27 280 95.54 280 0 280 C0 187.6 0 95.2 0 0 Z " fill="#FDFCFB" transform="translate(0,0)"/>
<path d="M0 0 C92.73 0 185.46 0 281 0 C281 92.4 281 184.8 281 280 C188.27 280 95.54 280 0 280 C0 187.6 0 95.2 0 0 Z M47 46 C46.35804687 46.59167969 45.71609375 47.18335938 45.0546875 47.79296875 C34.73248569 57.51504255 27.48417436 69.52730021 21 82 C20.27683594 83.36511719 20.27683594 83.36511719 19.5390625 84.7578125 C16.6607332 90.60613764 14.71969792 96.72050769 12.8125 102.9375 C12.56218018 103.74799805 12.31186035 104.55849609 12.05395508 105.39355469 C2.18198212 138.84542113 8.1798036 174.77189866 24.5222168 205.06396484 C41.23373208 234.82110722 69.94458563 257.6221546 102.59985352 267.27563477 C104.72804843 267.87295551 106.86049795 268.44473413 109 269 C109.95003906 269.25265625 110.90007812 269.5053125 111.87890625 269.765625 C119.12407028 271.43666777 126.59262798 271.71174771 134 272 C134.66950684 272.02868164 135.33901367 272.05736328 136.02880859 272.08691406 C172.8858473 273.47708167 205.04108203 259.11385996 232.26171875 234.99609375 C256.19715185 212.34982222 270.94239595 179.43020311 272.33984375 146.65234375 C272.63087507 134.45297397 271.79523833 122.87068746 269 111 C268.73316406 109.76636719 268.46632813 108.53273438 268.19140625 107.26171875 C262.5352517 83.45559273 249.46942993 63.74774308 233 46 C232.47148437 45.40574219 231.94296875 44.81148437 231.3984375 44.19921875 C209.95306637 21.15919182 176.65358688 9.11515401 145.81640625 7.72265625 C108.26556117 6.68734979 73.86290308 19.74947313 47 46 Z " fill="#9B7C3D" transform="translate(0,0)"/>
<path d="M0 0 C41.91 0 83.82 0 127 0 C127 92.4 127 184.8 127 280 C85.09 280 43.18 280 0 280 C0 279.67 0 279.34 0 279 C1.21171875 278.86464844 2.4234375 278.72929687 3.671875 278.58984375 C39.42874678 274.16887623 72.0774429 255.75584046 95 228 C119.25127082 196.37313607 129.47473782 158.5783111 124.453125 118.9375 C123.86344062 115.22850208 122.97329723 111.62774424 122 108 C121.73316406 106.79730469 121.46632813 105.59460938 121.19140625 104.35546875 C116.48333072 84.37230373 106.41989686 65.48248802 93 50 C92.33742188 49.20464844 91.67484375 48.40929688 90.9921875 47.58984375 C67.8302487 20.62456075 34.84563703 5.40399404 0 1 C0 0.67 0 0.34 0 0 Z " fill="#FEFEFD" transform="translate(154,0)"/>
<path d="M0 0 C0.33 0 0.66 0 1 0 C1.14695313 0.85078125 1.29390625 1.7015625 1.4453125 2.578125 C8.61046515 41.2864209 27.03058427 75.2151415 60 98 C79.35805265 110.89138267 100.70497405 119.76306042 124 122 C124 122.33 124 122.66 124 123 C83.08 123 42.16 123 0 123 C0 82.41 0 41.82 0 0 Z " fill="#FEFEFD" transform="translate(0,157)"/>
<path d="M0 0 C40.92 0 81.84 0 124 0 C124 0.33 124 0.66 124 1 C122.9584375 1.15855469 121.916875 1.31710938 120.84375 1.48046875 C84.5079814 7.27913913 50.71941379 25.26339382 28.4375 55.125 C13.55359811 75.67908401 3.01959914 99.54242134 1 125 C0.67 125 0.34 125 0 125 C0 83.75 0 42.5 0 0 Z " fill="#FEFEFE" transform="translate(0,0)"/>
<path d="M0 0 C2.46943735 2.1876397 4.8880262 4.41741512 7.2890625 6.6796875 C7.89105469 7.22882812 8.49304688 7.77796875 9.11328125 8.34375 C31.99162638 29.99551719 45.32952618 63.2553209 46.546875 94.34375 C47.39321499 127.64879592 37.97500243 160.58887761 15.2890625 185.6796875 C14.55945313 186.52789062 13.82984375 187.37609375 13.078125 188.25 C-9.09843429 213.69468381 -40.94599304 230.05643987 -74.7109375 232.6796875 C-80.38290036 232.93091584 -86.03802162 232.84892882 -91.7109375 232.6796875 C-92.97035156 232.65003906 -94.22976562 232.62039063 -95.52734375 232.58984375 C-128.15514299 231.17124378 -156.34936995 215.62540247 -179.7109375 193.6796875 C-180.30003906 193.15503906 -180.88914063 192.63039062 -181.49609375 192.08984375 C-204.24800488 170.95154334 -216.81696119 137.5546981 -218.0234375 107.03515625 C-218.37182481 92.81823696 -217.59542897 79.38930477 -213.7109375 65.6796875 C-213.50726563 64.95813477 -213.30359375 64.23658203 -213.09375 63.49316406 C-206.44152532 40.89818485 -193.76838882 22.57577683 -177.7109375 5.6796875 C-177.12957031 5.03386719 -176.54820312 4.38804688 -175.94921875 3.72265625 C-162.0989135 -11.17427157 -142.66266353 -20.03708982 -123.7109375 -26.3203125 C-122.70160156 -26.660625 -121.69226563 -27.0009375 -120.65234375 -27.3515625 C-79.40187381 -39.90878318 -32.17188736 -27.53616872 0 0 Z M-170.7109375 2.6796875 C-171.59652344 3.41832031 -172.48210937 4.15695313 -173.39453125 4.91796875 C-195.41791993 24.00490561 -211.34692853 53.18026243 -214.54541016 82.29003906 C-216.9564412 117.09707725 -211.695429 152.65540085 -188.51953125 180.29296875 C-186.99359046 181.9944831 -185.44944968 183.67986777 -183.88671875 185.34765625 C-181.96956768 187.40248424 -180.18408285 189.51171419 -178.3984375 191.6796875 C-159.44091672 213.23412894 -128.96629242 227.43733618 -100.6355896 229.85693359 C-95.84831789 230.11944221 -91.06608341 230.11092809 -86.2734375 230.0546875 C-85.19301178 230.04720993 -85.19301178 230.04720993 -84.09075928 230.0395813 C-47.45294078 229.74287979 -16.389046 215.02207783 9.25854492 189.1262207 C25.0707261 172.72340116 36.55579289 150.96766582 41.2890625 128.6796875 C41.45897705 127.92244385 41.6288916 127.1652002 41.80395508 126.38500977 C43.44410721 118.43612698 43.73137666 110.58996529 43.7265625 102.4921875 C43.72696533 101.79437164 43.72736816 101.09655579 43.7277832 100.37759399 C43.61105448 65.03042612 30.16756951 35.34313274 6.2890625 9.6796875 C5.21785156 8.47505859 5.21785156 8.47505859 4.125 7.24609375 C-11.23166358 -9.24516868 -33.0659402 -19.86359049 -54.7109375 -25.3203125 C-56.24041016 -25.71089844 -56.24041016 -25.71089844 -57.80078125 -26.109375 C-66.40313555 -28.14423684 -74.51206153 -28.79489698 -83.3359375 -28.6953125 C-85.29382202 -28.6811731 -85.29382202 -28.6811731 -87.29125977 -28.66674805 C-118.99519827 -28.17647089 -146.45748872 -17.90013226 -170.7109375 2.6796875 Z " fill="#F4F1EB" transform="translate(225.7109375,39.3203125)"/>
<path d="M0 0 C1.03382813 0.49371094 2.06765625 0.98742188 3.1328125 1.49609375 C32.98056993 16.85507097 55.71318546 45.21084084 66 77 C74.71951496 105.68247185 74.78387088 140.88023405 61 168 C60.65839844 168.70044434 60.31679688 169.40088867 59.96484375 170.12255859 C48.9927724 192.57346222 32.95979569 213.30064194 11 226 C10.29649414 226.40798828 9.59298828 226.81597656 8.86816406 227.23632812 C-12.90925458 239.65676834 -33.52298944 245.21310661 -58.5625 245.375 C-59.60108154 245.38705475 -59.60108154 245.38705475 -60.66064453 245.39935303 C-74.11096987 245.51759677 -87.16249484 243.77090241 -99.9375 239.375 C-100.67709961 239.12266602 -101.41669922 238.87033203 -102.17871094 238.61035156 C-125.99514777 230.11242056 -146.84163861 214.12145408 -162 194 C-162.60199219 193.22527344 -163.20398438 192.45054687 -163.82421875 191.65234375 C-180.19950164 169.61010902 -187.22270002 143.11650683 -187.25 116 C-187.25100708 115.30713898 -187.25201416 114.61427795 -187.25305176 113.90042114 C-187.24292429 103.60719331 -186.70044513 93.9834638 -184 84 C-183.73316406 82.85789062 -183.46632812 81.71578125 -183.19140625 80.5390625 C-178.59711494 62.36608799 -169.05314262 46.20470542 -157 32 C-156.26136719 31.11441406 -155.52273437 30.22882812 -154.76171875 29.31640625 C-116.35966173 -14.99365954 -51.81922545 -24.856272 0 0 Z M-144 22 C-145.5159375 23.175625 -145.5159375 23.175625 -147.0625 24.375 C-151.61881056 28.44659667 -155.25165963 33.18984307 -159 38 C-160.00933594 39.2684375 -160.00933594 39.2684375 -161.0390625 40.5625 C-182.4217651 68.50483646 -188.06560699 102.37961901 -184.59765625 136.765625 C-183.99140597 140.61709735 -183.15314106 144.28382969 -182 148 C-181.74186523 148.83257324 -181.48373047 149.66514648 -181.21777344 150.52294922 C-172.69225154 177.15222331 -158.37478056 199.80543363 -136 217 C-135.14792969 217.67933594 -134.29585937 218.35867187 -133.41796875 219.05859375 C-125.83415077 224.89142527 -117.64155064 228.99940607 -109 233 C-107.96746094 233.48597656 -106.93492188 233.97195313 -105.87109375 234.47265625 C-77.85985853 246.93479764 -42.45744737 246.83287516 -14 235.96826172 C3.09029513 229.07323609 17.59313006 219.66446997 31 207 C31.75023437 206.31421875 32.50046875 205.6284375 33.2734375 204.921875 C47.41821687 191.5215577 56.82192745 174.29076944 63 156 C63.58974609 154.25589844 63.58974609 154.25589844 64.19140625 152.4765625 C67.75526986 141.4035988 69.35139276 131.00743554 69.25 119.375 C69.24250732 118.23490479 69.23501465 117.09480957 69.22729492 115.92016602 C68.7930731 81.58753201 56.85145203 51.91245969 33 27 C32.31679687 26.25363281 31.63359375 25.50726563 30.9296875 24.73828125 C24.66856693 18.11905231 17.55836874 13.0152253 10 8 C9.04351562 7.35933594 8.08703125 6.71867187 7.1015625 6.05859375 C-38.89269687 -22.73613166 -105.28961731 -15.70592166 -144 22 Z " fill="#A3874D" transform="translate(198,24)"/>
<path d="M0 0 C1.32 0 2.64 0 4 0 C4.495 2.97 4.495 2.97 5 6 C6.32 4.68 7.64 3.36 9 2 C9.11667875 5.22886009 9.18740546 8.45717445 9.25 11.6875 C9.30027344 13.05551758 9.30027344 13.05551758 9.3515625 14.45117188 C9.43394798 20.11517392 9.02088617 22.73374479 5 27 C5 28.32 5 29.64 5 31 C5.721875 30.525625 6.44375 30.05125 7.1875 29.5625 C10.49348464 27.88611628 13.51061764 27.70573032 17.1875 27.5 C26.38210457 26.97014993 26.38210457 26.97014993 35 24 C36.34957446 21.4854964 36.34957446 21.4854964 37 19 C38.65 19.33 40.3 19.66 42 20 C41.505 22.475 41.505 22.475 41 25 C40.34 25 39.68 25 39 25 C39.515625 25.928125 40.03125 26.85625 40.5625 27.8125 C42 31 42 31 41 34 C40.01 32.35 39.02 30.7 38 29 C37.01 30.98 36.02 32.96 35 35 C34 32 34 32 34.9375 29.8125 C35.288125 29.214375 35.63875 28.61625 36 28 C25.60681972 28.65380093 12.71799122 30.28200878 5 38 C4.66767316 40.71034638 4.66767316 40.71034638 4.68115234 43.91845703 C4.66128265 45.15959259 4.64141296 46.40072815 4.62094116 47.67947388 C4.60906389 49.03891827 4.59740108 50.39836455 4.5859375 51.7578125 C4.56723271 53.14502118 4.54765981 54.5322184 4.5272522 55.91940308 C4.47585188 59.57225804 4.43626875 63.22514994 4.39910889 66.87817383 C4.35911852 70.60507397 4.30800361 74.33181949 4.2578125 78.05859375 C4.16095981 85.37228988 4.07658525 92.6860606 4 100 C5.98 99.505 5.98 99.505 8 99 C5.525 104.94 5.525 104.94 3 111 C2.34 111 1.68 111 1 111 C-0.65 107.04 -2.3 103.08 -4 99 C-2.35 99.33 -0.7 99.66 1 100 C0.96191367 92.26305712 0.90250949 84.52652506 0.81609726 76.78997517 C0.77663469 73.19728618 0.74444066 69.60484182 0.72900391 66.01196289 C0.7138286 62.54275334 0.67936945 59.07421637 0.63169098 55.60530663 C0.60969433 53.64178569 0.60752701 51.678075 0.60565186 49.71443176 C0.58593323 48.5135643 0.5662146 47.31269684 0.54589844 46.07543945 C0.53701599 45.02064896 0.52813354 43.96585846 0.51898193 42.87910461 C-0.12916211 39.28346018 -1.49607324 37.61424565 -4 35 C-12.47300396 29.90000717 -22.38726574 28.50046486 -32 27 C-32.33 27.99 -32.66 28.98 -33 30 C-33 29.34 -33 28.68 -33 28 C-33.66 28 -34.32 28 -35 28 C-35.33 28.66 -35.66 29.32 -36 30 C-35.95875 29.21625 -35.9175 28.4325 -35.875 27.625 C-35.71271266 24.83883881 -35.71271266 24.83883881 -38 23 C-37.625 20.875 -37.625 20.875 -37 19 C-33.41789444 19.30703762 -32.1864703 19.80862258 -29.625 22.4375 C-24.6965027 27.24865213 -19.58992028 27.05354047 -13 27.375 C-7.16188441 27.7048722 -3.68668908 28.54077711 1 32 C0.34 29.69 -0.32 27.38 -1 25 C-0.34 25 0.32 25 1 25 C0.01 23.68 -0.98 22.36 -2 21 C-2.99 21.495 -2.99 21.495 -4 22 C-4 15.73 -4 9.46 -4 3 C-3.01 3.66 -2.02 4.32 -1 5 C-0.67 3.35 -0.34 1.7 0 0 Z " fill="#A3864C" transform="translate(138,86)"/>
<path d="M0 0 C3.06098472 3.6390984 4.8483913 7.68238609 6.79296875 11.9765625 C7.14386063 12.74302094 7.4947525 13.50947937 7.85627747 14.29916382 C8.59395009 15.91354167 9.32922897 17.52901521 10.06225586 19.14550781 C11.18798737 21.62607392 12.32291318 24.10228006 13.45898438 26.578125 C14.17502944 28.14818666 14.89054287 29.71849091 15.60546875 31.2890625 C15.94603806 32.03177399 16.28660736 32.77448547 16.63749695 33.53970337 C19 38.76943108 19 38.76943108 19 41 C6.46 41 -6.08 41 -19 41 C-14.49095088 30.33574097 -9.95742172 19.71387056 -5 9.25 C-4.61465088 8.43490967 -4.22930176 7.61981934 -3.83227539 6.7800293 C-1.13351598 1.13351598 -1.13351598 1.13351598 0 0 Z " fill="#FEFEFD" transform="translate(176,114)"/>
<path d="M0 0 C0.66 0 1.32 0 2 0 C4.5660799 5.67713091 7.12927543 11.35555738 9.69042969 17.03491211 C10.56280547 18.96848326 11.43585141 20.90175219 12.30957031 22.8347168 C13.56229402 25.60647452 14.81263635 28.3792954 16.0625 31.15234375 C16.45622803 32.02213364 16.84995605 32.89192352 17.25561523 33.78807068 C17.79617554 34.9892025 17.79617554 34.9892025 18.34765625 36.21459961 C18.66742432 36.9229747 18.98719238 37.63134979 19.31665039 38.3611908 C20 40 20 40 20 41 C7.79 41 -4.42 41 -17 41 C-15.875 34.25 -15.875 34.25 -14.41772461 31.10595703 C-14.09746811 30.4056839 -13.77721161 29.70541077 -13.44725037 28.98391724 C-12.93002159 27.88199539 -12.93002159 27.88199539 -12.40234375 26.7578125 C-12.04862198 25.98944061 -11.69490021 25.22106873 -11.33045959 24.42941284 C-10.20623967 21.99141319 -9.0720501 19.55820691 -7.9375 17.125 C-7.17055958 15.46645289 -6.40427635 13.80760172 -5.63867188 12.1484375 C-3.7667042 8.09539882 -1.88578523 4.04662702 0 0 Z " fill="#FEFEFD" transform="translate(103,114)"/>
<path d="M0 0 C3.40064895 3.07677762 5.79052533 6.1920341 6.328125 10.83203125 C6.30234375 11.81558594 6.2765625 12.79914063 6.25 13.8125 C6.22421875 14.85535156 6.1984375 15.89820312 6.171875 16.97265625 C5.96060407 20.69390553 5.56666984 24.31664606 5 28 C8.36055646 23.51925805 8.27429625 20.39449293 8 15 C11.17574802 18.17574802 11.16847356 21.51333538 11.25 25.875 C11.22363792 30.38291514 10.08837718 32.99727708 8 37 C7.74654648 39.72338295 7.85809919 42.25658425 8 45 C10.53309233 40.35796103 12.46515599 36.34844008 13 31 C13.33 31 13.66 31 14 31 C15.03487761 44.64505293 15.03487761 44.64505293 11.125 49.4375 C10.5784375 50.03433594 10.031875 50.63117188 9.46875 51.24609375 C7.20530706 53.94898173 6.71038058 56.59017319 6 60 C6.45375 59.34 6.9075 58.68 7.375 58 C7.91125 57.34 8.4475 56.68 9 56 C9.66 56 10.32 56 11 56 C11.66 53.36 12.32 50.72 13 48 C13.33 48 13.66 48 14 48 C14.31952689 53.21893926 13.97927549 57.61357486 11 62 C8.96447476 63.94318386 6.87268741 65.70358521 4.64453125 67.421875 C4.10183594 67.94265625 3.55914062 68.4634375 3 69 C3 69.99 3 70.98 3 72 C5.64 70.35 8.28 68.7 11 67 C9.72485298 72.48313219 7.60004976 74.81535017 3 78 C-0.375 79.3125 -0.375 79.3125 -3 80 C-2.649375 79.030625 -2.29875 78.06125 -1.9375 77.0625 C-0.33026863 71.39126929 -0.91674872 66.08317553 -3.625 60.875 C-5.38668545 57.19147589 -4.86160854 54.91640248 -4 51 C-3.360625 51.804375 -2.72125 52.60875 -2.0625 53.4375 C-0.59396498 55.2750504 -0.59396498 55.2750504 1 57 C1.45459858 59.65463121 1.70243238 62.32189138 2 65 C3.15967101 60.41978675 3.92048553 56.64848346 1.54296875 52.390625 C0.26604371 50.71579867 -1.02832268 49.05412538 -2.33984375 47.40625 C-4.76532301 43.89073183 -4.92206102 41.20870503 -5 37 C-1.36440339 40.43361902 1.36113346 43.7973607 4 48 C4.33 45.69 4.66 43.38 5 41 C4.41476563 40.74605469 3.82953125 40.49210937 3.2265625 40.23046875 C-1.17587173 37.79754457 -4.9080124 33.54161306 -6.89453125 28.91796875 C-7.4375 27 -7.4375 27 -8 24 C-6.72390677 24.90933009 -5.45434447 25.82782853 -4.1875 26.75 C-3.47980469 27.26046875 -2.77210938 27.7709375 -2.04296875 28.296875 C0.03450751 30.02876725 1.45530734 31.79197085 3 34 C3.33 34.33 3.66 34.66 4 35 C3.67 32.69 3.34 30.38 3 28 C1.9790625 27.6596875 1.9790625 27.6596875 0.9375 27.3125 C-4.70895405 24.78961628 -9.34855155 21.77079956 -12 16 C-12 15.34 -12 14.68 -12 14 C-7.00189109 15.278586 -4.31379552 17.04185535 -1 21 C0.3125 23.8125 0.3125 23.8125 1 26 C1.82876326 23.14937469 2.0845237 20.77165261 1.9140625 17.8125 C1.87023437 17.03132813 1.82640625 16.25015625 1.78125 15.4453125 C1.7296875 14.63835937 1.678125 13.83140625 1.625 13 C1.58117187 12.19304687 1.53734375 11.38609375 1.4921875 10.5546875 C1.27517239 6.90159989 0.97354503 3.54016373 0 0 Z " fill="#C3B08B" transform="translate(209,94)"/>
<path d="M0 0 C2.62436416 3.93654623 2.96877521 7.31628142 3 12 C2.3747292 14.34476551 1.7136591 16.68060793 1 19 C1.12345954 23.93838154 4.06968826 27.24790342 7 31 C6.67 30.319375 6.34 29.63875 6 28.9375 C4.28518103 23.90021927 4.76109921 19.11046575 6 14 C9.66852666 18.78503477 10.04127754 21.15022107 10.125 27.25 C10.2608654 31.0349499 10.39018796 34.12569118 12.62109375 37.32421875 C14.35404957 38.76428063 16.00718665 39.95416323 18 41 C17.45859375 40.27296875 17.45859375 40.27296875 16.90625 39.53125 C13.34723177 34.39044589 12.44381246 31.2293004 13 25 C17.58486687 29.34355809 20.06396326 32.28191548 20.5625 38.625 C20.81884544 41.93666003 20.81884544 41.93666003 22 45 C12.00570792 43.71239182 4.37615069 42.47859722 -3 35 C-2.67 34.34 -2.34 33.68 -2 33 C-1.01 33.66 -0.02 34.32 1 35 C3.0492094 35.45139459 3.0492094 35.45139459 5.1875 35.625 C7.0746875 35.810625 7.0746875 35.810625 9 36 C5.88464257 33.39144712 2.94919895 32.18865613 -0.875 30.875 C-7.221067 28.35364086 -10.00665522 25.02607567 -13 19 C-12.67 18.34 -12.34 17.68 -12 17 C-11.29875 17.763125 -10.5975 18.52625 -9.875 19.3125 C-7.03647396 21.96590478 -4.53050949 23.44000743 -1 25 C-1.33 24.38125 -1.66 23.7625 -2 23.125 C-3 21 -3 21 -3 19 C-3.86625 18.773125 -4.7325 18.54625 -5.625 18.3125 C-10.82138994 16.29168169 -14.04221442 13.57571176 -16.9375 8.8125 C-17.288125 7.884375 -17.63875 6.95625 -18 6 C-17.67 5.34 -17.34 4.68 -17 4 C-16.443125 4.598125 -15.88625 5.19625 -15.3125 5.8125 C-12.9909352 8.00857481 -10.85538304 9.57230848 -8 11 C-7.34 10.67 -6.68 10.34 -6 10 C-4.68 12.64 -3.36 15.28 -2 18 C-2.02320312 17.28714844 -2.04640625 16.57429688 -2.0703125 15.83984375 C-2.17815674 10.11639606 -1.92057311 5.40161186 0 0 Z " fill="#AA905A" transform="translate(77,155)"/>
<path d="M0 0 C0.66 0.33 1.32 0.66 2 1 C-0.98771902 6.44663822 -3.53720375 9.95099744 -9 13 C-5.7 12.34 -2.4 11.68 1 11 C0.67 11.66 0.34 12.32 0 13 C4.62 13 9.24 13 14 13 C9.79647422 17.20352578 6.05614211 17.89887826 0.1875 18.1875 C-4.56240535 18.06618611 -9.28230115 17.54137528 -14 17 C-10.83759418 19.10827055 -9.49342531 19.33817465 -5.8125 19.625 C-4.91144531 19.69976562 -4.01039063 19.77453125 -3.08203125 19.8515625 C-2.39496094 19.90054688 -1.70789063 19.94953125 -1 20 C-1.33 20.66 -1.66 21.32 -2 22 C-10.30895817 23.58159794 -16.02236394 23.69922428 -23 19 C-26.62563814 18.66619186 -26.62563814 18.66619186 -30 19 C-31.32 19 -32.64 19 -34 19 C-35.89681595 19.85598913 -35.89681595 19.85598913 -37.75 21 C-43.27875161 23.8925936 -48.00499542 23.66460892 -54 22 C-54.99 21.67 -55.98 21.34 -57 21 C-57 20.67 -57 20.34 -57 20 C-56.33613281 19.95101562 -55.67226562 19.90203125 -54.98828125 19.8515625 C-48.2887764 19.28874188 -48.2887764 19.28874188 -42 17 C-42 16.67 -42 16.34 -42 16 C-40.35 15.67 -38.7 15.34 -37 15 C-37.9075 14.649375 -38.815 14.29875 -39.75 13.9375 C-43.91857529 11.45238781 -44.89152626 9.29804263 -47 5 C-39.40142404 6.65411177 -35.58379734 9.79492386 -31 16 C-27.35028782 15.5654831 -27.35028782 15.5654831 -24.4453125 13.4765625 C-24.00960937 12.86554688 -23.57390625 12.25453125 -23.125 11.625 C-20.11417154 7.83416416 -17.6166178 6.42049778 -13 5 C-12.34 5.33 -11.68 5.66 -11 6 C-15.18461538 12.64615385 -15.18461538 12.64615385 -19.3125 14.4375 C-20.199375 14.623125 -21.08625 14.80875 -22 15 C-18.51352041 15.32432368 -16.54027496 15.32416497 -13.5 13.5 C-11.37765733 11.37765733 -9.74618349 9.3563205 -8 6.9375 C-5.68864754 3.74449763 -3.73162957 1.55484565 0 0 Z " fill="#A68A52" transform="translate(169,195)"/>
<path d="M0 0 C0.60203372 2.23612524 1.06921919 4.43014782 1.4375 6.71875 C2.02413999 10.14081662 2.76927202 13.49515906 3.5625 16.875 C3.83191406 18.02742188 4.10132812 19.17984375 4.37890625 20.3671875 C4.58386719 21.23601562 4.78882812 22.10484375 5 23 C5.33 21.989375 5.66 20.97875 6 19.9375 C8.04675536 15.04525549 11.90926052 12.19680116 16 9 C16.33 9.66 16.66 10.32 17 11 C14.95456882 16.15804384 12.94908149 19.19517403 8.75 22.8125 C6.12869358 25.24448985 5.10678988 26.38919425 4.484375 29.94921875 C4.49834593 32.67704378 4.6422635 35.29710198 5 38 C5.07476562 37.43152344 5.14953125 36.86304688 5.2265625 36.27734375 C6.27503424 30.12014206 8.34978658 26.21637426 13 22 C13.33 22 13.66 22 14 22 C14.41389142 27.07957649 13.4071 29.62859135 10.5625 33.8125 C9.92441406 34.76769531 9.28632812 35.72289062 8.62890625 36.70703125 C7 39 7 39 6 40 C6.08937803 41.52519276 6.24537146 43.04681929 6.4375 44.5625 C6.53933594 45.38878906 6.64117187 46.21507812 6.74609375 47.06640625 C6.82988281 47.70449219 6.91367188 48.34257812 7 49 C7.2475 47.824375 7.495 46.64875 7.75 45.4375 C8.81896129 41.09193997 10.63577541 37.78275934 13 34 C13.33 34 13.66 34 14 34 C14.67360912 42.08330939 12.44171655 47.7355197 9 55 C3.33627734 52.33618319 -1.53863762 48.96288648 -3.9375 43 C-5.00446937 39.6169264 -5.26677013 36.5569351 -5 33 C-4.73445313 33.58265625 -4.46890625 34.1653125 -4.1953125 34.765625 C-2.96697004 37.06174228 -1.59685061 38.80356018 0.125 40.75 C0.66382813 41.36359375 1.20265625 41.9771875 1.7578125 42.609375 C2.16773437 43.06828125 2.57765625 43.5271875 3 44 C1.95182063 39.91210045 0.41455194 37.16324061 -2.125 33.875 C-5.93004884 28.47220008 -5.58341999 23.3852077 -5 17 C-4.67 17 -4.34 17 -4 17 C-3.80664062 17.61488281 -3.61328125 18.22976562 -3.4140625 18.86328125 C-3.15367188 19.67152344 -2.89328125 20.47976562 -2.625 21.3125 C-2.24214844 22.51326172 -2.24214844 22.51326172 -1.8515625 23.73828125 C-1.01168189 26.22724528 -1.01168189 26.22724528 1 29 C1.39013716 30.9896995 1.73202649 32.99019869 2 35 C2.4182654 28.02890993 2.44922743 22.94495336 -1.1015625 16.86328125 C-3.72096713 11.43086381 -1.80624314 5.41872942 0 0 Z " fill="#A4874D" transform="translate(62,109)"/>
<path d="M0 0 C0.33 0 0.66 0 1 0 C1.08165496 2.20770805 1.13948488 4.41630425 1.1875 6.625 C1.22230469 7.85476562 1.25710937 9.08453125 1.29296875 10.3515625 C0.9787947 14.26407664 -0.03093467 16.64070218 -2 20 C-1.34 20 -0.68 20 0 20 C0.268125 19.401875 0.53625 18.80375 0.8125 18.1875 C1.99917406 16.00152146 3.09599113 14.58667406 5 13 C5.66 13 6.32 13 7 13 C8.5036673 12.27812556 9.98011122 11.49875582 11.4375 10.6875 C12.21996094 10.25824219 13.00242188 9.82898438 13.80859375 9.38671875 C15.85401576 8.09237862 17.3756063 6.78108762 19 5 C18.01314989 9.47502329 16.4257942 12.90810387 13 16 C9.38832699 17.81617921 5.7600993 19.31022805 1.984375 20.73828125 C-1.10175656 21.66211257 -1.10175656 21.66211257 -2 24 C-0.741875 23.87625 0.51625 23.7525 1.8125 23.625 C2.52019531 23.55539063 3.22789062 23.48578125 3.95703125 23.4140625 C6.29988142 23.07334609 6.29988142 23.07334609 9 21 C7.80280402 24.59158793 5.49299275 26.76365108 2.41796875 28.89453125 C-2.69531542 31.2322686 -8.4550952 31.48473145 -14 32 C-14.55497653 25.34028158 -13.74355784 20.6026896 -10 15 C-7.75 12.5 -7.75 12.5 -6 11 C-6.03320772 18.95324802 -8.09165178 23.78576097 -13 30 C-9.77343944 28.04495419 -7.26624688 26.03454806 -5 23 C-4.33106227 19.43801313 -4.24958342 16.08955288 -4.20703125 12.46875 C-3.92294086 7.70889599 -2.33220725 4.10034577 0 0 Z " fill="#A3864C" transform="translate(197,167)"/>
<path d="M0 0 C3.40064895 3.07677762 5.79052533 6.1920341 6.328125 10.83203125 C6.30234375 11.81558594 6.2765625 12.79914063 6.25 13.8125 C6.22421875 14.85535156 6.1984375 15.89820312 6.171875 16.97265625 C5.96060407 20.69390553 5.56666984 24.31664606 5 28 C8.36055646 23.51925805 8.27429625 20.39449293 8 15 C11.05740452 18.05740452 11.19459224 21.3506727 11.375 25.5625 C11.35652204 31.76185667 8.86573054 36.61652048 6 42 C-0.08119513 38.60876554 -5.47344759 33.90224132 -7.4375 27 C-7.623125 26.01 -7.80875 25.02 -8 24 C-6.72390677 24.90933009 -5.45434447 25.82782853 -4.1875 26.75 C-3.47980469 27.26046875 -2.77210938 27.7709375 -2.04296875 28.296875 C0.03450751 30.02876725 1.45530734 31.79197085 3 34 C3.33 34.33 3.66 34.66 4 35 C3.67 32.69 3.34 30.38 3 28 C1.9790625 27.6596875 1.9790625 27.6596875 0.9375 27.3125 C-4.70895405 24.78961628 -9.34855155 21.77079956 -12 16 C-12 15.34 -12 14.68 -12 14 C-7.00189109 15.278586 -4.31379552 17.04185535 -1 21 C0.3125 23.8125 0.3125 23.8125 1 26 C1.82876326 23.14937469 2.0845237 20.77165261 1.9140625 17.8125 C1.87023437 17.03132813 1.82640625 16.25015625 1.78125 15.4453125 C1.7296875 14.63835937 1.678125 13.83140625 1.625 13 C1.58117187 12.19304687 1.53734375 11.38609375 1.4921875 10.5546875 C1.27517239 6.90159989 0.97354503 3.54016373 0 0 Z " fill="#A2854A" transform="translate(209,94)"/>
<path d="M0 0 C0.66 0.33 1.32 0.66 2 1 C1.59007813 1.54269531 1.18015625 2.08539063 0.7578125 2.64453125 C0.21898438 3.35996094 -0.31984375 4.07539062 -0.875 4.8125 C-1.40867187 5.52019531 -1.94234375 6.22789063 -2.4921875 6.95703125 C-3.70814781 8.60456297 -4.86416141 10.29624211 -6 12 C-5.34 12.33 -4.68 12.66 -4 13 C-4.99 13.66 -5.98 14.32 -7 15 C-3.39007621 14.34414811 -3.39007621 14.34414811 0 13 C4.84417698 12.83852743 9.22874338 13.04574868 14 14 C14 14.33 14 14.66 14 15 C12.865625 15.309375 11.73125 15.61875 10.5625 15.9375 C7.21224901 16.62924531 7.21224901 16.62924531 6 18 C3.95505642 18.03794741 1.90998272 18.07259863 -0.13525391 18.08813477 C-7.76058529 18.04516859 -7.76058529 18.04516859 -14.75 20.62109375 C-16.40617647 22.33592647 -17.77429201 23.95892974 -19 26 C-18.47792969 25.65066406 -17.95585938 25.30132812 -17.41796875 24.94140625 C-11.30208911 21.16048591 -6.14613977 20.14692998 1 20 C-0.20507961 22.41015922 -1.16327282 22.80315728 -3.5 24.0625 C-5.9117304 25.3141421 -5.9117304 25.3141421 -8 27 C-10.68544346 27.56274765 -13.36253387 28.08061023 -16.0625 28.5625 C-16.82111328 28.70107422 -17.57972656 28.83964844 -18.36132812 28.98242188 C-20.24024975 29.32511827 -22.12004701 29.6630073 -24 30 C-20.51480638 12.738041 -20.51480638 12.738041 -14 8 C-13.34 8.33 -12.68 8.66 -12 9 C-12.62380692 10.41719242 -13.2491003 11.8337306 -13.875 13.25 C-14.22304687 14.03890625 -14.57109375 14.8278125 -14.9296875 15.640625 C-15.90413905 17.78868608 -16.92986429 19.89829202 -18 22 C-13.12014155 18.52779303 -10.77934897 16.21257997 -9 10.4375 C-7.23703031 4.76197476 -5.13702233 2.86487784 0 0 Z " fill="#AA8F59" transform="translate(104,66)"/>
<path d="M0 0 C0.33 0.99 0.66 1.98 1 3 C0.34 4.32 -0.32 5.64 -1 7 C17.315 7.495 17.315 7.495 36 8 C36.33 7.34 36.66 6.68 37 6 C37 7.32 37 8.64 37 10 C35.4609375 11.4140625 35.4609375 11.4140625 33.375 12.625 C32.36566406 13.23214844 32.36566406 13.23214844 31.3359375 13.8515625 C24.3254533 17.29818851 17.71070363 17.9028927 10 17 C5.09356728 15.31705474 0.34284351 13.08450333 -3 9 C-2.73865785 5.602552 -1.64391844 2.95905318 0 0 Z " fill="#9C7D3F" transform="translate(159,147)"/>
<path d="M0 0 C2.33411133 2.86459118 3.68753462 5.55905814 5 9 C-3.31397542 15.12000968 -10.56397044 18.13589437 -21 17 C-27.21826502 15.68222198 -31.41020211 13.35442364 -36 9 C-35.67 7.35 -35.34 5.7 -35 4 C-34.67 5.32 -34.34 6.64 -34 8 C-22.12 7.67 -10.24 7.34 2 7 C1.34 5.68 0.68 4.36 0 3 C0 2.01 0 1.02 0 0 Z " fill="#9D7E3F" transform="translate(120,147)"/>
<path d="M0 0 C1.32 0 2.64 0 4 0 C4.33 1.98 4.66 3.96 5 6 C6.32 4.68 7.64 3.36 9 2 C9.14584064 5.22868746 9.23424106 8.45652365 9.3125 11.6875 C9.3753418 13.05551758 9.3753418 13.05551758 9.43945312 14.45117188 C9.5608921 21.13031568 9.5608921 21.13031568 7.86474609 23.76025391 C6.48046875 25.14453125 6.48046875 25.14453125 4 27 C4 23 4 23 5.5 21.25 C5.995 20.8375 6.49 20.425 7 20 C6.67 19.67 6.34 19.34 6 19 C5.34 19.33 4.68 19.66 4 20 C3.20046862 16.71303767 2.90341064 15.28976808 4 12 C3.72230092 9.6593935 3.39460023 7.32375692 3 5 C2.34 5 1.68 5 1 5 C1 5.66 1 6.32 1 7 C0.34 7 -0.32 7 -1 7 C-0.67 7.763125 -0.34 8.52625 0 9.3125 C1 12 1 12 1 15 C0.67 15.66 0.34 16.32 0 17 C-1.984375 15.85546875 -1.984375 15.85546875 -4 14 C-4.390625 11.30078125 -4.390625 11.30078125 -4.25 8.3125 C-4.21390625 7.31863281 -4.1778125 6.32476562 -4.140625 5.30078125 C-4.09421875 4.54152344 -4.0478125 3.78226562 -4 3 C-2.515 3.99 -2.515 3.99 -1 5 C-0.67 3.35 -0.34 1.7 0 0 Z " fill="#C9B896" transform="translate(138,86)"/>
<path d="M0 0 C1.8125 1.125 1.8125 1.125 3 3 C3.1875 6.1875 3.1875 6.1875 3 9 C4.98 9.66 6.96 10.32 9 11 C9 11.66 9 12.32 9 13 C7.3125 13.6875 7.3125 13.6875 5 14 C2.375 12.5625 2.375 12.5625 0 11 C-0.66 11 -1.32 11 -2 11 C-1.34 12.32 -0.68 13.64 0 15 C0.66 15 1.32 15 2 15 C2 15.66 2 16.32 2 17 C0.02 17.66 -1.96 18.32 -4 19 C-4.12375 17.9790625 -4.12375 17.9790625 -4.25 16.9375 C-5.24361648 13.04583545 -6.79596387 10.37087879 -9 7 C-9.99 6.67 -10.98 6.34 -12 6 C-12 5.34 -12 4.68 -12 4 C-4.29423459 -0.83499006 -4.29423459 -0.83499006 0 0 Z " fill="#AA905A" transform="translate(88,35)"/>
<path d="M0 0 C0.33 0.66 0.66 1.32 1 2 C0.67 2.66 0.34 3.32 0 4 C-0.25965739 6.65139044 -0.46607047 9.28010485 -0.625 11.9375 C-0.70234375 13.03094727 -0.70234375 13.03094727 -0.78125 14.14648438 C-0.98585777 17.42923552 -1.0500846 19.84974619 0 23 C0 23.66 0 24.32 0 25 C0.556875 24.0925 1.11375 23.185 1.6875 22.25 C4.96926272 17.63779294 8.97145481 14.58222591 14 12 C14.66 12.33 15.32 12.66 16 13 C14.66666667 14.66666667 13.33333333 16.33333333 12 18 C11.13375 19.2375 11.13375 19.2375 10.25 20.5 C7.30050135 23.77722073 3.9238196 26.00411774 0 28 C-0.66 28 -1.32 28 -2 28 C-2.33 29.98 -2.66 31.96 -3 34 C-3.33 34 -3.66 34 -4 34 C-3.98259766 32.77023438 -3.98259766 32.77023438 -3.96484375 31.515625 C-3.95130859 29.89914063 -3.95130859 29.89914063 -3.9375 28.25 C-3.92589844 27.18265625 -3.91429688 26.1153125 -3.90234375 25.015625 C-3.98598504 22.43278187 -4.31670338 20.46089536 -5 18 C-5.97569039 10.71019894 -4.00150587 6.04513209 0 0 Z " fill="#A28549" transform="translate(70,94)"/>
<path d="M0 0 C7.92105748 2.56269507 12.48811681 8.34240037 17 15 C17.33 15.66 17.66 16.32 18 17 C7.233939 19.56552943 -1.03773468 20.39021119 -11 15 C-7.78658631 13.39329316 -4.37041032 14.17489145 -0.875 14.4375 C-0.12089844 14.48970703 0.63320312 14.54191406 1.41015625 14.59570312 C3.2737937 14.72545004 5.13694996 14.86207488 7 15 C5.35 14.34 3.7 13.68 2 13 C6.25061356 11.58312881 8.71851625 12.80679961 13 14 C12.22076172 13.61521484 12.22076172 13.61521484 11.42578125 13.22265625 C5.41933541 9.92521741 2.80159852 6.18237367 0 0 Z " fill="#A3864C" transform="translate(108,194)"/>
<path d="M0 0 C4.92274678 4.7639485 4.92274678 4.7639485 5.1875 9 C5 12 5 12 3 14 C-0.125 14.125 -0.125 14.125 -3 14 C-3.99 15.98 -4.98 17.96 -6 20 C-6.66 19.67 -7.32 19.34 -8 19 C-7.39009109 15.44219804 -6.4216319 12.3171411 -5 9 C-6.65 9.33 -8.3 9.66 -10 10 C-10.33 10.99 -10.66 11.98 -11 13 C-11.99 11.68 -12.98 10.36 -14 9 C-13.67 8.34 -13.34 7.68 -13 7 C-12.29875 6.87625 -11.5975 6.7525 -10.875 6.625 C-6.98414659 5.7791623 -4.36513454 4.13556615 -1 2 C-0.67 1.34 -0.34 0.68 0 0 Z " fill="#A88C55" transform="translate(239,74)"/>
<path d="M0 0 C0 3 0 3 -2 6 C-2.67121699 8.4366838 -2.67121699 8.4366838 -3.125 11.0625 C-3.29257813 11.94035156 -3.46015625 12.81820312 -3.6328125 13.72265625 C-4.05305973 15.94462398 -4.05305973 15.94462398 -4 18 C-4 19.66666667 -4 21.33333333 -4 23 C-3.236875 22.071875 -2.47375 21.14375 -1.6875 20.1875 C2.41138247 16.00960292 7.41951624 15.13198425 13 14 C8.7792505 19.89249734 4.69959407 22.47023328 -2 25 C-4.34046101 25.98402226 -6.66970145 26.99199722 -9 28 C-9.32249937 9.49659864 -9.32249937 9.49659864 -1.71484375 1.5546875 C-1.14894531 1.04164062 -0.58304688 0.52859375 0 0 Z " fill="#A78C54" transform="translate(81,81)"/>
<path d="M0 0 C2 0 2 0 3.69140625 1.5546875 C10.31300604 9.76602419 10.07704884 17.8955948 10 28 C7.57527366 27.12239382 5.16188835 26.22420271 2.75 25.3125 C2.06808594 25.06822266 1.38617188 24.82394531 0.68359375 24.57226562 C-3.85476101 22.83182861 -6.17940752 21.10797299 -9 17 C-9.98230498 15.9826127 -10.97469597 14.97403883 -12 14 C-0.29384966 16.70615034 -0.29384966 16.70615034 4 21 C4.8971875 21.86625 4.8971875 21.86625 5.8125 22.75 C6.204375 23.1625 6.59625 23.575 7 24 C6.67 23.236875 6.34 22.47375 6 21.6875 C5 19 5 19 5 16 C4.58063532 14.01221143 4.11714845 12.0335302 3.625 10.0625 C3.36976563 9.02222656 3.11453125 7.98195313 2.8515625 6.91015625 C2.11523155 4.39379588 1.26588853 2.28410321 0 0 Z " fill="#A4884F" transform="translate(198,81)"/>
<path d="M0 0 C1.98 0.66 3.96 1.32 6 2 C5.01 2.495 5.01 2.495 4 3 C3.53101037 5.8159849 3.53101037 5.8159849 3.375 9.0625 C3.30023438 10.16722656 3.22546875 11.27195312 3.1484375 12.41015625 C3.09945312 13.26480469 3.05046875 14.11945312 3 15 C7.15825278 10.5975524 7.15825278 10.5975524 9 5 C9.99 5 10.98 5 12 5 C11.34 9.62 10.68 14.24 10 19 C11.175625 17.576875 12.35125 16.15375 13.5625 14.6875 C14.22378906 13.88699219 14.88507813 13.08648437 15.56640625 12.26171875 C16.03949219 11.51535156 16.51257813 10.76898438 17 10 C16.67 9.01 16.34 8.02 16 7 C17.98 7.66 19.96 8.32 22 9 C22 9.66 22 10.32 22 11 C21.319375 11.37125 20.63875 11.7425 19.9375 12.125 C16.40230026 14.38151047 14.24361802 17.09681447 11.6484375 20.35546875 C10 22 10 22 7 22 C7 19.36 7 16.72 7 14 C6.401875 14.825 5.80375 15.65 5.1875 16.5 C4.1046875 17.7375 4.1046875 17.7375 3 19 C2.01 19 1.02 19 0 19 C0 12.73 0 6.46 0 0 Z " fill="#A78B53" transform="translate(178,27)"/>
<path d="M0 0 C4.49317094 1.41213944 6.99546239 3.37914699 10 7 C11.10880021 9.24613572 12.07138287 11.5217177 13.01953125 13.83984375 C14.27356279 16.60271005 15.97387164 18.75678646 18 21 C17.52046875 20.67902344 17.0409375 20.35804687 16.546875 20.02734375 C12.19181342 18.27062412 7.55636592 18.6028614 2.90625 18.52148438 C-2.65646007 18.33014955 -6.87605381 17.19347012 -12 15 C-12 14.34 -12 13.68 -12 13 C-9.75026553 12.945862 -7.50015617 12.90714509 -5.25 12.875 C-3.99703125 12.85179688 -2.7440625 12.82859375 -1.453125 12.8046875 C1.81164758 12.98934658 3.24940619 13.4264621 6 15 C6.99 15 7.98 15 9 15 C8.41071786 11.68255982 7.34301581 9.95336664 5.0625 7.5 C2.86536102 5.12471462 1.34039585 2.95275608 0 0 Z " fill="#A3864C" transform="translate(174,66)"/>
<path d="M0 0 C3.38541587 3.06299531 5.76499606 6.19072237 6.36328125 10.796875 C6.2539216 17.15655902 5.6404391 22.84835339 4 29 C-8.26335878 22.72137405 -8.26335878 22.72137405 -11.3125 16.1875 C-11.539375 15.465625 -11.76625 14.74375 -12 14 C-7.00189109 15.278586 -4.31379552 17.04185535 -1 21 C0.3125 23.8125 0.3125 23.8125 1 26 C1.82876326 23.14937469 2.0845237 20.77165261 1.9140625 17.8125 C1.87023437 17.03132813 1.82640625 16.25015625 1.78125 15.4453125 C1.7296875 14.63835937 1.678125 13.83140625 1.625 13 C1.58117187 12.19304687 1.53734375 11.38609375 1.4921875 10.5546875 C1.27517239 6.90159989 0.97354503 3.54016373 0 0 Z " fill="#A18448" transform="translate(209,94)"/>
<path d="M0 0 C4.92546172 2.18065596 8.11618831 5.48178622 11 10 C12.44377402 14.62764251 13 19.16386124 13 24 C-3.12204387 21.44786178 -3.12204387 21.44786178 -9 16 C-9 15.67 -9 15.34 -9 15 C-3.30310639 14.70533309 -0.01174654 14.99295208 5 18 C5.94875 18.556875 6.8975 19.11375 7.875 19.6875 C8.57625 20.120625 9.2775 20.55375 10 21 C9.34 19.68 8.68 18.36 8 17 C8.66 17 9.32 17 10 17 C9.59007812 16.40832031 9.18015625 15.81664063 8.7578125 15.20703125 C8.21898437 14.41683594 7.68015625 13.62664062 7.125 12.8125 C6.59132812 12.03519531 6.05765625 11.25789063 5.5078125 10.45703125 C4.01685201 8.02746092 3.03200343 5.64938697 2 3 C1.34 2.01 0.68 1.02 0 0 Z " fill="#A58950" transform="translate(186,72)"/>
<path d="M0 0 C1 2 1 2 0.36328125 4.49609375 C0.01652344 5.46675781 -0.33023438 6.43742188 -0.6875 7.4375 C-1.02136719 8.40558594 -1.35523438 9.37367188 -1.69921875 10.37109375 C-3.10053695 13.2031873 -4.34664228 14.35212521 -7 16 C-6.01 16.33 -5.02 16.66 -4 17 C-2.9790625 16.319375 -2.9790625 16.319375 -1.9375 15.625 C1.67491604 13.62664219 4.62662466 13.47064098 8.6953125 13.2109375 C11.15892635 13.07393805 11.15892635 13.07393805 14 12 C14 12.66 14 13.32 14 14 C6.14120153 20.11239881 -1.55227281 19.52165365 -11 19 C-8.69194799 11.20136464 -5.82651921 5.71195282 0 0 Z " fill="#A18449" transform="translate(181,187)"/>
<path d="M0 0 C7.00252325 5.01585233 10.07940733 10.67743178 12 19 C-4.84522309 20.03368414 -4.84522309 20.03368414 -10.0625 16 C-11.84765625 14.3125 -11.84765625 14.3125 -13 13 C-10.32773937 13 -7.72568373 13.10825583 -5.0625 13.3125 C-4.20785156 13.37050781 -3.35320312 13.42851562 -2.47265625 13.48828125 C0.3661982 14.07578509 1.73835875 15.2478232 4 17 C6.6984589 16.77802187 6.6984589 16.77802187 9 16 C8.071875 15.401875 7.14375 14.80375 6.1875 14.1875 C1.73380275 10.56558072 1.07809835 5.39994873 0 0 Z " fill="#A18449" transform="translate(98,187)"/>
<path d="M0 0 C2.86724686 0.57344937 3.8614515 0.8614515 6 3 C6.80432248 4.98343396 7.45581465 6.9934905 8.12109375 9.02734375 C8.88674342 11.08732987 8.88674342 11.08732987 10.59765625 12.50390625 C12.73777231 14.78709414 12 17.03707203 12 20 C9.25814847 18.951645 6.78409929 17.87242231 4.25 16.375 C0.51344286 14.7941489 -1.97840188 14.89424682 -5.94921875 15.28515625 C-8 15 -8 15 -9.76953125 12.99609375 C-10.17558594 12.33738281 -10.58164063 11.67867187 -11 11 C-8.54159395 10.97308315 -6.08348118 10.95320198 -3.625 10.9375 C-2.92632812 10.92912109 -2.22765625 10.92074219 -1.5078125 10.91210938 C3.7734375 10.88671875 3.7734375 10.88671875 6 12 C5.38125 11.505 4.7625 11.01 4.125 10.5 C1.25011778 7.11778563 0.86548583 4.32742915 0 0 Z " fill="#F3EFE8" transform="translate(184,73)"/>
<path d="M0 0 C0.33 0.99 0.66 1.98 1 3 C2.98536627 3.70905938 4.98910922 4.36694179 7 5 C9.3981501 6.24224175 11.68208596 7.60925157 14 9 C14 9.99 14 10.98 14 12 C9.38 12.66 4.76 13.32 0 14 C1.093125 14.680625 2.18625 15.36125 3.3125 16.0625 C3.92738281 16.44535156 4.54226562 16.82820313 5.17578125 17.22265625 C7.17133075 18.31112074 7.17133075 18.31112074 10 17 C8.25 21.875 8.25 21.875 6 23 C5.67 22.01 5.34 21.02 5 20 C3.01829207 18.53927361 3.01829207 18.53927361 0.625 17.3125 C-0.16648437 16.87550781 -0.95796875 16.43851563 -1.7734375 15.98828125 C-4.0509986 14.79715396 -4.0509986 14.79715396 -7 15 C-6.34 13.35 -5.68 11.7 -5 10 C-0.38 9.67 4.24 9.34 9 9 C7.55625 8.319375 6.1125 7.63875 4.625 6.9375 C3.81289063 6.55464844 3.00078125 6.17179687 2.1640625 5.77734375 C1.09285156 5.39255859 1.09285156 5.39255859 0 5 C-0.99 5.495 -0.99 5.495 -2 6 C-1.49396008 3.83125748 -1.00016187 2.00032373 0 0 Z " fill="#AC925D" transform="translate(39,76)"/>
<path d="M0 0 C0.66 0 1.32 0 2 0 C2.50546036 2.08201528 3.00416835 4.16567067 3.5 6.25 C3.7784375 7.41015625 4.056875 8.5703125 4.34375 9.765625 C5 13 5 13 5 17 C5.66 17.33 6.32 17.66 7 18 C4.69 17.67 2.38 17.34 0 17 C0.66 16.67 1.32 16.34 2 16 C2 14.68 2 13.36 2 12 C-0.31 12 -2.62 12 -5 12 C-4.67 13.32 -4.34 14.64 -4 16 C-6.31 15.67 -8.62 15.34 -11 15 C-10.484375 14.38125 -9.96875 13.7625 -9.4375 13.125 C-6.63732854 9.53503659 -4.1158152 5.7954878 -1.5859375 2.01171875 C-1.06257812 1.34785156 -0.53921875 0.68398438 0 0 Z " fill="#AB915C" transform="translate(161,23)"/>
<path d="M0 0 C7.41128112 -0.49870303 13.67888191 -0.25486013 20 4 C22.0625 6.75 22.0625 6.75 23 9 C17.03612473 9.59200232 12.46818634 9.95003846 7.625 6.0625 C6.99851563 5.51464844 6.37203125 4.96679688 5.7265625 4.40234375 C3.5841932 2.66227457 1.73914632 2.17119665 -1 2 C-0.67 1.34 -0.34 0.68 0 0 Z " fill="#9E7F42" transform="translate(154,67)"/>
<path d="M0 0 C0.99 0.66 1.98 1.32 3 2 C2.154375 2.226875 1.30875 2.45375 0.4375 2.6875 C-2.5447542 3.82617888 -3.8902008 4.62309258 -6.25 6.5625 C-9.91101821 9.34291694 -13.15193325 9.66024273 -17.66796875 9.859375 C-19.90372142 9.99419426 -21.85150696 10.38755601 -24 11 C-16.51177202 3.29782265 -10.93996469 -0.71737473 0 0 Z " fill="#9D7E40" transform="translate(124,67)"/>
<path d="M0 0 C0.66 0 1.32 0 2 0 C2.33 0.66 2.66 1.32 3 2 C6.02934491 2.65772428 6.02934491 2.65772428 9 3 C8.67 6.3 8.34 9.6 8 13 C6.6078125 12.9690625 6.6078125 12.9690625 5.1875 12.9375 C1.97713989 12.84230396 1.97713989 12.84230396 -1 14 C-1 12.35 -1 10.7 -1 9 C-2.32 8.67 -3.64 8.34 -5 8 C-5 7.34 -5 6.68 -5 6 C-4.360625 5.7525 -3.72125 5.505 -3.0625 5.25 C-0.81258459 4.18437567 -0.81258459 4.18437567 -0.25 1.875 C-0.1675 1.25625 -0.085 0.6375 0 0 Z " fill="#9C7E3F" transform="translate(245,144)"/>
<path d="M0 0 C2.475 0.495 2.475 0.495 5 1 C4.67 2.65 4.34 4.3 4 6 C3.34 6 2.68 6 2 6 C2.515625 6.928125 3.03125 7.85625 3.5625 8.8125 C5 12 5 12 4 15 C3.01 13.35 2.02 11.7 1 10 C0.01 11.98 -0.98 13.96 -2 16 C-3 13 -3 13 -2.0625 10.8125 C-1.5365625 9.9153125 -1.5365625 9.9153125 -1 9 C-2.50013097 9.14447983 -4.00009702 9.29067215 -5.5 9.4375 C-6.41394531 9.52644531 -7.32789063 9.61539063 -8.26953125 9.70703125 C-10.58980067 9.9559872 -12.88099201 10.27607836 -15.1875 10.625 C-19.14980079 11.0147345 -22.120238 10.72745538 -26 10 C-26 9.67 -26 9.34 -26 9 C-25.18917969 8.96261719 -24.37835938 8.92523438 -23.54296875 8.88671875 C-12.43989416 8.39591032 -12.43989416 8.39591032 -2 5 C-0.65042554 2.4854964 -0.65042554 2.4854964 0 0 Z " fill="#AC925D" transform="translate(175,105)"/>
<path d="M0 0 C4.455 0.99 4.455 0.99 9 2 C8.79375 2.7425 8.5875 3.485 8.375 4.25 C7.95591249 7.32330841 8.38050989 8.42786866 10 11 C8.329375 11.4640625 8.329375 11.4640625 6.625 11.9375 C3.2054845 12.82326483 3.2054845 12.82326483 1 14 C0.67 12.35 0.34 10.7 0 9 C-1.32 8.67 -2.64 8.34 -4 8 C-4 7.34 -4 6.68 -4 6 C-3.01 5.34 -2.02 4.68 -1 4 C-0.67 2.68 -0.34 1.36 0 0 Z " fill="#9D7E40" transform="translate(29,146)"/>
<path d="M0 0 C1.39545044 -0.0009668 1.39545044 -0.0009668 2.8190918 -0.00195312 C10.04845881 0.05317072 16.90853638 0.71394912 24 2.1875 C24 2.8475 24 3.5075 24 4.1875 C4.2 3.6925 4.2 3.6925 -16 3.1875 C-15.67 2.5275 -15.34 1.8675 -15 1.1875 C-10.1959676 -0.33313122 -4.9888037 -0.00354224 0 0 Z " fill="#F7F5F0" transform="translate(140,7.8125)"/>
<path d="M0 0 C0.33 0 0.66 0 1 0 C1.52781021 16.17941302 0.57611259 31.19519922 -3 47 C-3.99 46.34 -4.98 45.68 -6 45 C-5.79503906 44.10023438 -5.59007812 43.20046875 -5.37890625 42.2734375 C-2.92119748 30.53758414 -2.29956865 18.96950522 -2 7 C-1.67 7 -1.34 7 -1 7 C-0.67 4.69 -0.34 2.38 0 0 Z " fill="#EEE9DF" transform="translate(271,128)"/>
<path d="M0 0 C1.17825358 0.90172468 2.34231577 1.82201502 3.5 2.75 C4.1496875 3.26046875 4.799375 3.7709375 5.46875 4.296875 C7 6 7 6 7 10 C6.01 10.33 5.02 10.66 4 11 C3.67 8.69 3.34 6.38 3 4 C1.68 4.99 0.36 5.98 -1 7 C-0.34 8.98 0.32 10.96 1 13 C0.01 12.67 -0.98 12.34 -2 12 C-2.33 11.34 -2.66 10.68 -3 10 C-4.98 10.99 -4.98 10.99 -7 12 C-4.9927092 15.0109362 -4.16115776 15.63016497 -1 17 C-2.98 17.99 -2.98 17.99 -5 19 C-6.17262904 17.88121617 -7.33795138 16.75476949 -8.5 15.625 C-9.1496875 14.99851562 -9.799375 14.37203125 -10.46875 13.7265625 C-12 12 -12 12 -12 10 C-11.278125 9.773125 -10.55625 9.54625 -9.8125 9.3125 C-6.47560763 7.75528356 -4.55051994 5.61945291 -2 3 C-1.34 3 -0.68 3 0 3 C0 2.01 0 1.02 0 0 Z " fill="#A68A52" transform="translate(225,57)"/>
<path d="M0 0 C1.423125 0.4021875 1.423125 0.4021875 2.875 0.8125 C4.27435013 3.61120027 4.12765405 5.71748792 3.875 8.8125 C2.6875 10.75 2.6875 10.75 0.875 11.8125 C-2.46692692 11.56796876 -3.73043557 11.20706443 -6.125 8.8125 C-6.45802312 5.6820827 -6.60171956 3.63351702 -5 0.875 C-3.125 -0.1875 -3.125 -0.1875 0 0 Z " fill="#D9CEB6" transform="translate(147.125,240.1875)"/>
<path d="M0 0 C2.57365089 1.28682545 2.72348972 2.44697943 4 5 C4.70125 5.763125 5.4025 6.52625 6.125 7.3125 C8.5605078 10.80339452 8.61795503 12.82880356 8 17 C6.4375 19 6.4375 19 4 20 C0.625 20.125 0.625 20.125 -3 19 C-4.77035252 17.31198946 -6.1998914 15.56868819 -7.640625 13.59375 C-9.01081727 11.70940784 -9.01081727 11.70940784 -12 11 C-10.68 9.68 -9.36 8.36 -8 7 C-7.34 7.33 -6.68 7.66 -6 8 C-5.896875 8.5775 -5.79375 9.155 -5.6875 9.75 C-4.64004912 13.17802107 -2.76643719 14.79942496 0 17 C2.760165 16.95020416 2.760165 16.95020416 5 16 C5.75999157 14.19410937 5.75999157 14.19410937 6 12 C4.9329832 9.99881832 4.9329832 9.99881832 3.25 8.25 C2.71890625 7.63640625 2.1878125 7.0228125 1.640625 6.390625 C-0.02296829 4.67670332 -0.02296829 4.67670332 -3 5 C-1.125 1.125 -1.125 1.125 0 0 Z " fill="#A4884F" transform="translate(67,45)"/>
<path d="M0 0 C2.3125 0.1875 2.3125 0.1875 5 1 C7.20970874 3.89548041 8 5.33157745 8 9 C6.68 9.33 5.36 9.66 4 10 C4 9.34 4 8.68 4 8 C4.66 8 5.32 8 6 8 C5.67 6.68 5.34 5.36 5 4 C3.68 4 2.36 4 1 4 C0.34 6.97 -0.32 9.94 -1 13 C-2.98 13.33 -4.96 13.66 -7 14 C-9.35448165 11.44931155 -9.98327924 10.28982642 -10.1875 6.75 C-10.125625 5.8425 -10.06375 4.935 -10 4 C-8.35 3.67 -6.7 3.34 -5 3 C-5 3.66 -5 4.32 -5 5 C-5.99 5 -6.98 5 -8 5 C-8 6.98 -8 8.96 -8 11 C-6.35 11 -4.7 11 -3 11 C-2.814375 9.1128125 -2.814375 9.1128125 -2.625 7.1875 C-2.30131941 3.89674737 -1.93395001 2.90092502 0 0 Z " fill="#A58950" transform="translate(246,96)"/>
<path d="M0 0 C1 3 1 3 0.3125 4.83203125 C-4.60696785 12.25515684 -11.90574106 14.28131761 -20 17 C-20 16.34 -20 15.68 -20 15 C-19.34 15 -18.68 15 -18 15 C-17.731875 14.401875 -17.46375 13.80375 -17.1875 13.1875 C-16.00082594 11.00152146 -14.90400887 9.58667406 -13 8 C-12.34 8 -11.68 8 -11 8 C-9.47488894 7.28012482 -7.97751 6.50061021 -6.5 5.6875 C-5.7059375 5.25824219 -4.911875 4.82898438 -4.09375 4.38671875 C-1.7311682 3.0164369 -1.7311682 3.0164369 0 0 Z " fill="#A3874D" transform="translate(215,172)"/>
<path d="M0 0 C5.12148626 0.51214863 9.78613418 2.01043303 14 5 C16.19249584 8.4893643 16.53152769 11.93990666 17 16 C16.34 16 15.68 16 15 16 C14.484375 14.9275 13.96875 13.855 13.4375 12.75 C10.66752846 7.88037032 6.90555601 5.89401723 1.5625 4.25 C1.046875 4.1675 0.53125 4.085 0 4 C0 2.68 0 1.36 0 0 Z " fill="#EEE8DE" transform="translate(195,104)"/>
<path d="M0 0 C-0.33 0.99 -0.66 1.98 -1 3 C-3.29296875 3.73828125 -3.29296875 3.73828125 -6.1875 4.3125 C-11.8440947 5.68245653 -14.33773171 7.54588992 -18 12 C-18.66 11.67 -19.32 11.34 -20 11 C-19.67 10.01 -19.34 9.02 -19 8 C-19.33 7.34 -19.66 6.68 -20 6 C-19.5 3.9375 -19.5 3.9375 -18 2 C-14.6875 1.3125 -14.6875 1.3125 -11 1 C-9.7315625 0.7215625 -9.7315625 0.7215625 -8.4375 0.4375 C-5.59064299 -0.07347434 -2.88624192 -0.06712191 0 0 Z " fill="#F2EEE6" transform="translate(95,93)"/>
<path d="M0 0 C0.19818283 6.70518586 0.30844801 12.65176798 -2 19 C-1.34 19.33 -0.68 19.66 0 20 C-1.485 22.475 -1.485 22.475 -3 25 C-5.55324012 20.54451768 -5.1256549 16.92815847 -4.8125 11.9375 C-4.78091797 11.12216797 -4.74933594 10.30683594 -4.71679688 9.46679688 C-4.67232422 8.68240234 -4.62785156 7.89800781 -4.58203125 7.08984375 C-4.54311768 6.37691162 -4.5042041 5.66397949 -4.46411133 4.92944336 C-3.93748642 2.74011319 -2.58878193 0 0 0 Z " fill="#F0ECE3" transform="translate(73,95)"/>
<path d="M0 0 C3.84113262 5.76169894 4.17383154 10.03297285 3.2890625 16.73046875 C2.93682704 19.11468218 2.93682704 19.11468218 3 22 C1.5 23.6875 1.5 23.6875 0 25 C0.04125 23.96875 0.0825 22.9375 0.125 21.875 C0.00274651 18.08514167 -0.79193306 15.54869664 -2 12 C-2.37314666 7.52224011 -1.5941808 4.1847246 0 0 Z " fill="#A58951" transform="translate(202,155)"/>
<path d="M0 0 C1.32 0.66 2.64 1.32 4 2 C3.01 2.495 3.01 2.495 2 3 C2 5.31 2 7.62 2 10 C5.62793998 8.13433512 5.62793998 8.13433512 8 5 C9.32 6.32 10.64 7.64 12 9 C10.84371094 9.39832031 10.84371094 9.39832031 9.6640625 9.8046875 C8.66117188 10.15789063 7.65828125 10.51109375 6.625 10.875 C5.12839844 11.39707031 5.12839844 11.39707031 3.6015625 11.9296875 C0.89557882 12.84782502 0.89557882 12.84782502 -1 15 C-1 16.32 -1 17.64 -1 19 C-4.875 17.25 -4.875 17.25 -6 15 C-5.36578125 14.63261719 -4.7315625 14.26523437 -4.078125 13.88671875 C-1.28989753 11.35530171 -1.22580491 9.49998803 -0.75 5.8125 C-0.60046875 4.72582031 -0.4509375 3.63914063 -0.296875 2.51953125 C-0.19890625 1.68808594 -0.1009375 0.85664062 0 0 Z " fill="#AA905A" transform="translate(207,42)"/>
<path d="M0 0 C-3.85623679 6.50739958 -3.85623679 6.50739958 -7.11328125 7.91015625 C-9.05385609 8.37548059 -11.02723582 8.69906987 -13 9 C-13 9.66 -13 10.32 -13 11 C-12.34 11 -11.68 11 -11 11 C-11.33 11.66 -11.66 12.32 -12 13 C-14.64 12.67 -17.28 12.34 -20 12 C-19.40832031 11.75121094 -18.81664062 11.50242188 -18.20703125 11.24609375 C-15.68961754 9.82475751 -14.4585289 8.33229121 -12.6875 6.0625 C-9.66600673 2.48098858 -5.01780205 -2.50890103 0 0 Z " fill="#A28549" transform="translate(158,201)"/>
<path d="M0 0 C0.99 0 1.98 0 3 0 C7.63421641 7.24096313 7.42691034 13.55666209 7 22 C4.53724299 19.53724299 4.32328021 17.33617474 3.5703125 14.01953125 C2.82644701 11.38543222 1.41161906 9.33224019 0 7 C-0.75 3.75 -0.75 3.75 -1 1 C-0.67 0.67 -0.34 0.34 0 0 Z " fill="#F1EDE4" transform="translate(58,124)"/>
<path d="M0 0 C0.99 0.33 1.98 0.66 3 1 C2.67 1.99 2.34 2.98 2 4 C0.8134874 8.08594833 0.85134821 11.76342394 1 16 C1.99 16.33 2.98 16.66 4 17 C2.02 17.66 0.04 18.32 -2 19 C-2 17.989375 -2 16.97875 -2 15.9375 C-2.60836249 11.20579173 -5.72651957 9.13081476 -9.28515625 6.28515625 C-9.85105469 5.86105469 -10.41695313 5.43695312 -11 5 C-10.67 4.34 -10.34 3.68 -10 3 C-6.74456771 3.34879632 -5.98126893 4.02133261 -3.75 6.5625 C-2.88375 7.7690625 -2.88375 7.7690625 -2 9 C-1.34 6.69 -0.68 4.38 0 2 C-0.66 1.67 -1.32 1.34 -2 1 C-1.34 0.67 -0.68 0.34 0 0 Z " fill="#9E8043" transform="translate(108,25)"/>
<path d="M0 0 C4.58486687 4.34355809 7.06396326 7.28191548 7.5625 13.625 C7.81884544 16.93666003 7.81884544 16.93666003 9 20 C7.02 19.34 5.04 18.68 3 18 C3 17.34 3 16.68 3 16 C3.66 15.67 4.32 15.34 5 15 C4.175 14.01 3.35 13.02 2.5 12 C-0.49895571 7.86904411 -0.4383507 4.99719798 0 0 Z " fill="#A3874C" transform="translate(90,180)"/>
<path d="M0 0 C-0.165 1.051875 -0.33 2.10375 -0.5 3.1875 C-1.25711395 9.10578512 -1.08169679 15.04521179 -1 21 C-2.98223068 18.41495396 -4.62594577 15.95950142 -6 13 C-6.99 13.495 -6.99 13.495 -8 14 C-8 12.68 -8 11.36 -8 10 C-7.34 10 -6.68 10 -6 10 C-5.731875 8.72125 -5.46375 7.4425 -5.1875 6.125 C-4.56263978 3.14489743 -3.88189571 0 0 0 Z " fill="#F4F0EA" transform="translate(77,154)"/>
<path d="M0 0 C0.99 0 1.98 0 3 0 C2.71640113 1.4391134 2.42278601 2.87625518 2.125 4.3125 C1.96257812 5.11300781 1.80015625 5.91351563 1.6328125 6.73828125 C1 9 1 9 -1 12 C-2.8046875 12.984375 -2.8046875 12.984375 -4.875 13.75 C-5.55304688 14.01296875 -6.23109375 14.2759375 -6.9296875 14.546875 C-9.29899512 15.06544044 -10.72122356 14.75618591 -13 14 C-12.09507812 13.48953125 -12.09507812 13.48953125 -11.171875 12.96875 C-5.21113762 9.3538512 -2.57171751 6.48520067 0 0 Z " fill="#F6F4EF" transform="translate(171,194)"/>
<path d="M0 0 C0.33 0 0.66 0 1 0 C1.30372936 8.00945568 1.50848663 14.69065285 -2 22 C-2.33 22 -2.66 22 -3 22 C-5.14622957 13.41508172 -3.98636192 7.68798371 0 0 Z " fill="#A28449" transform="translate(197,167)"/>
<path d="M0 0 C12.03857366 2.78299776 12.03857366 2.78299776 16 7 C16.69459301 8.31900067 17.366209 9.65072939 18 11 C11.75064672 10.08778503 8.18921689 9.02706027 4 4 C2.67517058 2.65821664 1.34315232 1.32344149 0 0 Z " fill="#A2854A" transform="translate(186,95)"/>
<path d="M0 0 C4.92274678 4.7639485 4.92274678 4.7639485 5.1875 9 C5 12 5 12 3 14 C-0.125 14.125 -0.125 14.125 -3 14 C-3.99 15.98 -4.98 17.96 -6 20 C-6.66 19.67 -7.32 19.34 -8 19 C-7.65544802 15.89903219 -7.15182706 14.20062862 -5.25 11.6875 C-2.58761061 9.69070796 -1.25047681 9.63883591 2 10 C2 8.68 2 7.36 2 6 C2 5.34 2 4.68 2 4 C1.01 4 0.02 4 -1 4 C-0.67 2.68 -0.34 1.36 0 0 Z " fill="#A3864C" transform="translate(239,74)"/>
<path d="M0 0 C1.98 0 3.96 0 6 0 C5.67 0.66 5.34 1.32 5 2 C4.77049681 4.204364 4.58924067 6.41392173 4.4375 8.625 C4.35371094 9.81351563 4.26992187 11.00203125 4.18359375 12.2265625 C4.12300781 13.14179687 4.06242188 14.05703125 4 15 C5.98 15 7.96 15 10 15 C10.33 14.01 10.66 13.02 11 12 C11.33 12 11.66 12 12 12 C12 13.65 12 15.3 12 17 C8.04 17 4.08 17 0 17 C0.33 16.34 0.66 15.68 1 15 C1.22950319 12.795636 1.41075933 10.58607827 1.5625 8.375 C1.64628906 7.18648437 1.73007813 5.99796875 1.81640625 4.7734375 C1.87699219 3.85820312 1.93757812 2.94296875 2 2 C1.34 2 0.68 2 0 2 C0 1.34 0 0.68 0 0 Z " fill="#9F8245" transform="translate(133,21)"/>
<path d="M0 0 C0 0.33 0 0.66 0 1 C-1.134375 1.309375 -2.26875 1.61875 -3.4375 1.9375 C-6.78775099 2.62924531 -6.78775099 2.62924531 -8 4 C-10.35313555 4.07271741 -12.70833668 4.08370868 -15.0625 4.0625 C-16.35285156 4.05347656 -17.64320312 4.04445313 -18.97265625 4.03515625 C-19.97167969 4.02355469 -20.97070312 4.01195313 -22 4 C-14.6624884 -1.53345399 -8.97134588 -1.79426918 0 0 Z " fill="#9E8043" transform="translate(118,80)"/>
<path d="M0 0 C0.33 0 0.66 0 1 0 C2.51794122 6.88494768 3.18864794 13.31849543 2.97265625 20.37109375 C2.99775276 22.78394369 3.29969669 24.70365659 4 27 C3.34 27.33 2.68 27.66 2 28 C1.81824219 26.77023438 1.81824219 26.77023438 1.6328125 25.515625 C1.46523437 24.43796875 1.29765625 23.3603125 1.125 22.25 C0.96257812 21.18265625 0.80015625 20.1153125 0.6328125 19.015625 C0.15203125 16.07498127 0.15203125 16.07498127 -1.0625 13.90625 C-2.22083928 11.55096014 -2.20169664 9.85768579 -2.125 7.25 C-2.10695312 6.45078125 -2.08890625 5.6515625 -2.0703125 4.828125 C-2.04710937 4.22484375 -2.02390625 3.6215625 -2 3 C-1.34 3 -0.68 3 0 3 C0 2.01 0 1.02 0 0 Z " fill="#EFEBE1" transform="translate(64,105)"/>
<path d="M0 0 C5.53774111 0.35687665 10.31163006 0.76279219 15 4 C18 8.9 18 8.9 18 12 C15 11 15 11 12.875 8.625 C9.60678915 5.64098139 7.09698038 4.84591884 2.890625 3.7734375 C1.95476562 3.39058594 1.95476562 3.39058594 1 3 C0.67 2.01 0.34 1.02 0 0 Z " fill="#F8F6F1" transform="translate(187,93)"/>
<path d="M0 0 C0.86625 0.763125 1.7325 1.52625 2.625 2.3125 C4.81394969 4.16071695 6.46658926 5.21463106 9.125 6.4375 C12.66073556 8.35909541 14.01130782 10.55803277 16 14 C11.5948025 13.48776773 8.4979273 12.78040375 5 10 C0 3.2967033 0 3.2967033 0 0 Z " fill="#A2854A" transform="translate(64,172)"/>
<path d="M0 0 C2.25 -0.375 2.25 -0.375 5 0 C7.68508508 2.68508508 8.95051932 4.67020685 9.09375 8.51953125 C8.74397791 12.78550156 8.41198728 15.38201908 6 19 C5.96132812 17.87851563 5.96132812 17.87851563 5.921875 16.734375 C5.76561588 10.68948609 5.76561588 10.68948609 3 5.5625 C2.34 5.046875 1.68 4.53125 1 4 C0.25 1.75 0.25 1.75 0 0 Z " fill="#F6F3EE" transform="translate(204,143)"/>
<path d="M0 0 C0.99 0 1.98 0 3 0 C2.69034013 4.87464563 2.14901754 8.6850366 -1.13671875 12.4453125 C-3.36457509 14.39687269 -5.61583147 16.24376063 -8 18 C-8.33 17.34 -8.66 16.68 -9 16 C-8.236875 15.01 -7.47375 14.02 -6.6875 13 C-3.94268957 9.1899232 -2.52555573 5.42411162 -1 1 C-0.67 0.67 -0.34 0.34 0 0 Z " fill="#F5F2EC" transform="translate(93,72)"/>
<path d="M0 0 C0.66 0.33 1.32 0.66 2 1 C2.4772657 2.73445339 2.88272667 4.48897149 3.25 6.25 C4.64083232 11.79171012 6.24467349 13.93545625 11 17 C10.34 17.33 9.68 17.66 9 18 C2.4375 15.65625 2.4375 15.65625 0 12 C-0.44921875 9.3359375 -0.44921875 9.3359375 -0.6875 6.375 C-0.77386719 5.39273438 -0.86023438 4.41046875 -0.94921875 3.3984375 C-0.96597656 2.60695312 -0.98273438 1.81546875 -1 1 C-0.67 0.67 -0.34 0.34 0 0 Z " fill="#ECE6DA" transform="translate(97,186)"/>
<path d="M0 0 C0.66 0 1.32 0 2 0 C2.05831395 4.04160556 2.09370212 8.08310205 2.125 12.125 C2.14175781 13.26710937 2.15851563 14.40921875 2.17578125 15.5859375 C2.18222656 16.69453125 2.18867188 17.803125 2.1953125 18.9453125 C2.20578613 19.96125488 2.21625977 20.97719727 2.22705078 22.02392578 C1.97841818 25.28288429 1.14878364 27.95115207 0 31 C-0.33 31 -0.66 31 -1 31 C-0.67 20.77 -0.34 10.54 0 0 Z " fill="#A18449" transform="translate(267,132)"/>
<path d="M0 0 C0.33 0.66 0.66 1.32 1 2 C0.67 2.66 0.34 3.32 0 4 C-0.2064743 6.28842353 -0.36647108 8.58116393 -0.5 10.875 C-0.94595994 18.50410048 -0.94595994 18.50410048 -2 22 C-2.66 22 -3.32 22 -4 22 C-5.81993899 15.36169795 -5.91560466 10.05471287 -2.5 3.9375 C-1.68518428 2.61342446 -0.85814571 1.29641299 0 0 Z " fill="#9F8144" transform="translate(70,94)"/>
<path d="M0 0 C-3.41006314 3.73775689 -7.09609336 4.73891482 -12.12890625 5.19140625 C-15.9608584 5.29726128 -17.75030233 5.16646511 -21 3 C-14.24708362 -0.85880936 -7.61241576 -0.28506966 0 0 Z " fill="#A3864C" transform="translate(183,208)"/>
<path d="M0 0 C5.55301672 1.79656423 9.53248932 4.96442067 12.9375 9.6875 C13.288125 10.450625 13.63875 11.21375 14 12 C13.67 12.66 13.34 13.32 13 14 C6.21832914 10.65123449 3.10460205 6.85102088 0 0 Z " fill="#A08347" transform="translate(108,194)"/>
<path d="M0 0 C0.33 0 0.66 0 1 0 C1.19335938 0.61488281 1.38671875 1.22976562 1.5859375 1.86328125 C1.84632812 2.67152344 2.10671875 3.47976562 2.375 4.3125 C2.63023438 5.11300781 2.88546875 5.91351563 3.1484375 6.73828125 C3.98831811 9.22724528 3.98831811 9.22724528 6 12 C6.43738696 13.71444889 6.80848688 15.44667784 7.125 17.1875 C7.29257813 18.08855469 7.46015625 18.98960937 7.6328125 19.91796875 C7.75398438 20.60503906 7.87515625 21.29210937 8 22 C0.25126563 14.67011614 0.25126563 14.67011614 -0.29296875 8.88671875 C-0.25816406 7.83097656 -0.22335938 6.77523437 -0.1875 5.6875 C-0.16042969 4.61886719 -0.13335937 3.55023438 -0.10546875 2.44921875 C-0.07066406 1.64097656 -0.03585938 0.83273438 0 0 Z " fill="#A08246" transform="translate(57,126)"/>
<path d="M0 0 C-4.24192045 4.77216051 -9.67804014 8.7158519 -16 10 C-15.375 7.18359375 -15.375 7.18359375 -14 4 C-11.25 2.28515625 -11.25 2.28515625 -8 1.0625 C-6.9275 0.64097656 -5.855 0.21945313 -4.75 -0.21484375 C-2 -1 -2 -1 0 0 Z " fill="#F6F4EF" transform="translate(87,104)"/>
<path d="M0 0 C1.90034653 1.59947676 2.89767037 2.52833609 3.43237305 4.99291992 C3.45855713 5.73131104 3.48474121 6.46970215 3.51171875 7.23046875 C3.54716797 8.03291016 3.58261719 8.83535156 3.61914062 9.66210938 C3.64169922 10.49548828 3.66425781 11.32886719 3.6875 12.1875 C3.72166016 13.03248047 3.75582031 13.87746094 3.79101562 14.74804688 C3.87341471 16.83156649 3.93838645 18.91576216 4 21 C-0.54969437 14.17545844 -1.72363647 9.16874249 -1 1 C-0.67 0.67 -0.34 0.34 0 0 Z " fill="#F8F6F1" transform="translate(208,95)"/>
<path d="M0 0 C0.99 1.0209375 0.99 1.0209375 2 2.0625 C3.63399938 3.73417083 5.26497451 5.20620013 7.11328125 6.64453125 C12.89793265 11.19621966 12.89793265 11.19621966 13.5 15.9375 C13.335 16.948125 13.17 17.95875 13 19 C12.34 19 11.68 19 11 19 C10.835 18.154375 10.67 17.30875 10.5 16.4375 C8.4649436 11.77382907 5.28435576 8.73228726 1 6 C-0.32 6 -1.64 6 -3 6 C-1.125 1.125 -1.125 1.125 0 0 Z " fill="#A58951" transform="translate(49,63)"/>
<path d="M0 0 C0.66 0.99 1.32 1.98 2 3 C1.12263184 3.12846313 1.12263184 3.12846313 0.22753906 3.25952148 C-2.43194943 3.65011078 -5.09097419 4.04377373 -7.75 4.4375 C-8.67039062 4.57220703 -9.59078125 4.70691406 -10.5390625 4.84570312 C-11.42851563 4.97783203 -12.31796875 5.10996094 -13.234375 5.24609375 C-14.05131836 5.36654053 -14.86826172 5.4869873 -15.70996094 5.61108398 C-17.84392138 5.97349326 -19.90916693 6.44370405 -22 7 C-21.45703125 5.109375 -21.45703125 5.109375 -20 3 C-17.48070065 2.20097962 -15.26915278 1.66838034 -12.6875 1.25 C-11.69073242 1.06244141 -11.69073242 1.06244141 -10.67382812 0.87109375 C-3.45663355 -0.42814405 -3.45663355 -0.42814405 0 0 Z " fill="#EDE8DD" transform="translate(125,9)"/>
<path d="M0 0 C-1 2 -1 2 -2.6796875 2.78125 C-11.97335975 5.82401814 -20.26401863 7.59606252 -30 6 C-30 5.67 -30 5.34 -30 5 C-28.73285156 4.81824219 -27.46570313 4.63648438 -26.16015625 4.44921875 C-24.46087446 4.19573473 -22.76165919 3.94180454 -21.0625 3.6875 C-19.81629883 3.51057617 -19.81629883 3.51057617 -18.54492188 3.33007812 C-13.38568148 2.54715838 -8.69084508 1.35870351 -3.81030273 -0.50073242 C-2 -1 -2 -1 0 0 Z " fill="#A4884E" transform="translate(183,261)"/>
<path d="M0 0 C1.65 0.33 3.3 0.66 5 1 C5.625 3.375 5.625 3.375 6 6 C5.34 6.66 4.68 7.32 4 8 C3.3574765 10.06874034 3.3574765 10.06874034 3 12 C2.67 10.35 2.34 8.7 2 7 C1.01 7 0.02 7 -1 7 C-1 8.32 -1 9.64 -1 11 C-1.66 11 -2.32 11 -3 11 C-2.69078116 9.54096742 -2.37751201 8.08279278 -2.0625 6.625 C-1.88847656 5.81289062 -1.71445313 5.00078125 -1.53515625 4.1640625 C-1 2 -1 2 0 0 Z " fill="#C5B38F" transform="translate(115,237)"/>
<path d="M0 0 C0.66 0.33 1.32 0.66 2 1 C4.21138855 0.91188555 6.42042185 0.7570216 8.625 0.5625 C10.40777344 0.40974609 10.40777344 0.40974609 12.2265625 0.25390625 C13.59941406 0.12822266 13.59941406 0.12822266 15 0 C13 3 13 3 10.13671875 3.625 C8.99847656 3.74875 7.86023438 3.8725 6.6875 4 C1.94811274 4.51879268 -1.01002784 5.40122168 -5 8 C-5.66 8 -6.32 8 -7 8 C-5.74381926 4.23145777 -4.33985294 3.92041544 -1 2 C-0.67 1.34 -0.34 0.68 0 0 Z " fill="#F7F5F0" transform="translate(182,197)"/>
<path d="M0 0 C0.66 0.33 1.32 0.66 2 1 C-3.0493065 10.04577888 -3.0493065 10.04577888 -8 12 C-8.99 11.67 -9.98 11.34 -11 11 C-4.7706422 1.98776758 -4.7706422 1.98776758 0 0 Z " fill="#A18348" transform="translate(169,195)"/>
<path d="M0 0 C0 3 0 3 -1.46875 4.60546875 C-6.56872032 8.57756102 -9.54663312 9.69143217 -16 9 C-9.88888889 2.88888889 -9.88888889 2.88888889 -3.91015625 2.37890625 C-1.7671052 2.13777773 -1.7671052 2.13777773 0 0 Z " fill="#9E7F42" transform="translate(205,188)"/>
<path d="M0 0 C0.5671875 0.31324219 1.134375 0.62648437 1.71875 0.94921875 C4.04209142 2.019388 5.98397533 2.42044821 8.5 2.8125 C12.09152011 3.54027096 12.87252577 3.86941664 15.5625 6.625 C16.036875 7.40875 16.51125 8.1925 17 9 C11.30090608 9.72533923 8.61726533 9.15929343 4 5.625 C1.6875 3.7265625 1.6875 3.7265625 0 2 C0 1.34 0 0.68 0 0 Z " fill="#9F8144" transform="translate(74,188)"/>
<path d="M0 0 C0.33 0 0.66 0 1 0 C2.03368414 13.62931686 2.03368414 13.62931686 -2 18.875 C-2.96819639 19.94629137 -3.95746567 21.0009046 -5 22 C-6.661775 18.67645001 -5.09259186 15.37250899 -4 12 C-3 10 -2 8 -1 6 C-0.29241674 2.7633037 -0.29241674 2.7633037 0 0 Z " fill="#9E8042" transform="translate(222,125)"/>
<path d="M0 0 C0.33 0 0.66 0 1 0 C1.14584064 3.22868746 1.23424106 6.45652365 1.3125 9.6875 C1.35439453 10.59951172 1.39628906 11.51152344 1.43945312 12.45117188 C1.5608921 19.13031568 1.5608921 19.13031568 -0.13525391 21.76025391 C-1.51953125 23.14453125 -1.51953125 23.14453125 -4 25 C-4 21 -4 21 -2.5 19.25 C-2.005 18.8375 -1.51 18.425 -1 18 C-1.33 17.67 -1.66 17.34 -2 17 C-2.66 17.33 -3.32 17.66 -4 18 C-4.75 15.75 -4.75 15.75 -5 13 C-3.0625 10.6875 -3.0625 10.6875 -1 9 C-1.33 10.32 -1.66 11.64 -2 13 C-1.34 13 -0.68 13 0 13 C0 8.71 0 4.42 0 0 Z " fill="#DACFB8" transform="translate(146,88)"/>
<path d="M0 0 C2.86724686 0.57344937 3.8614515 0.8614515 6 3 C6.80432248 4.98343396 7.45581465 6.9934905 8.12109375 9.02734375 C9.09143119 11.20521222 10.312454 12.35005948 12 14 C12 14.66 12 15.32 12 16 C7.82053308 14.39251272 4.6372292 11.56801597 2 8 C0.9719737 5.30385554 0.49404893 2.86548377 0 0 Z " fill="#F7F5F1" transform="translate(184,73)"/>
<path d="M0 0 C3.07388417 4.00941413 4.1276781 6.04110792 4.0625 11.125 C4.05347656 12.03507813 4.04445313 12.94515625 4.03515625 13.8828125 C4.02355469 14.58148438 4.01195313 15.28015625 4 16 C3.01 16 2.02 16 1 16 C-1.83139051 11.57595232 -1.3540529 7.08006077 -0.5 2.0625 C-0.335 1.381875 -0.17 0.70125 0 0 Z " fill="#9E7F41" transform="translate(83,169)"/>
<path d="M0 0 C0.66 0.66 1.32 1.32 2 2 C1.938125 3.216875 1.87625 4.43375 1.8125 5.6875 C1.63583188 10.77368231 3.81769445 13.18123334 7 17 C6.67 17.66 6.34 18.32 6 19 C2.89930197 16.97208812 0.28380883 14.93489468 -2 12 C-2.68609368 8.23657437 -2.49221479 4.78048304 -2 1 C-1.34 0.67 -0.68 0.34 0 0 Z " fill="#F8F6F2" transform="translate(89,178)"/>
<path d="M0 0 C0.99 0.33 1.98 0.66 3 1 C1.73130765 6.92056432 -0.13965435 11.66068812 -3 17 C-3.33 17 -3.66 17 -4 17 C-4.50604984 10.01370081 -4.0333905 5.79799884 0 0 Z " fill="#F8F5F1" transform="translate(220,124)"/>
<path d="M0 0 C0.63934094 2.37469491 1.11070881 4.69193008 1.5 7.125 C1.8463487 9.93215397 1.8463487 9.93215397 3 12 C2.91348369 13.54613014 2.75997364 15.08909387 2.5625 16.625 C2.46066406 17.44226563 2.35882813 18.25953125 2.25390625 19.1015625 C2.17011719 19.72804687 2.08632812 20.35453125 2 21 C-1.34307452 17.94762761 -1.9575289 15.84942203 -2.1875 11.25 C-2.14992636 7.19204676 -1.27940817 3.83822452 0 0 Z " fill="#A08246" transform="translate(62,109)"/>
<path d="M0 0 C0.33 0.66 0.66 1.32 1 2 C-4.90506815 5.82735898 -8.92512658 7.64317031 -16 7 C-15 4 -15 4 -12 2 C-9.58984375 1.62109375 -9.58984375 1.62109375 -6.9375 1.4375 C-3.33239957 1.22366554 -3.33239957 1.22366554 0 0 Z " fill="#A08246" transform="translate(194,199)"/>
<path d="M0 0 C0 0.66 0 1.32 0 2 C-17.02072864 8.34045226 -17.02072864 8.34045226 -24 8 C-21.46094593 4.86762746 -19.05977713 4.28988805 -15.1875 3.4375 C-11.85847445 2.67359317 -8.68130266 1.89376755 -5.4375 0.8125 C-3 0 -3 0 0 0 Z " fill="#F6F3ED" transform="translate(188,261)"/>
<path d="M0 0 C0.33 0.66 0.66 1.32 1 2 C-1.98936384 7.35594354 -5.47539888 10.2974895 -11 13 C-11.66 13 -12.32 13 -13 13 C-10.50869967 6.88499009 -5.394715 3.38737919 0 0 Z " fill="#A08347" transform="translate(219,161)"/>
<path d="M0 0 C0.26683594 0.59167969 0.53367188 1.18335938 0.80859375 1.79296875 C2.0136174 4.02522568 3.30328246 5.50141363 5.0625 7.3125 C8.21234761 10.85320462 8.80878633 13.31526502 9 18 C5.05597894 16.35665789 3.45317736 14.44668406 1.6875 10.6875 C0.18859871 7.00345345 -0.41172069 4.01427672 0 0 Z " fill="#A3864C" transform="translate(57,142)"/>
<path d="M0 0 C0.639375 0.45375 1.27875 0.9075 1.9375 1.375 C5.79059791 3.41950093 9.66572603 4.48908362 14 5 C14.66 4.67 15.32 4.34 16 4 C15.34 6.31 14.68 8.62 14 11 C13.360625 10.54625 12.72125 10.0925 12.0625 9.625 C7.75905884 7.34154142 2.90853753 6 -2 6 C-1.34 4.02 -0.68 2.04 0 0 Z " fill="#A78C55" transform="translate(28,100)"/>
<path d="M0 0 C-1.32 0.33 -2.64 0.66 -4 1 C-4 1.66 -4 2.32 -4 3 C-8.55369858 5.05330409 -12.54216994 5.38587233 -17.4765625 5.65625 C-20.2422563 5.84566418 -20.2422563 5.84566418 -23 8 C-23 7.01 -23 6.02 -23 5 C-23.66 5 -24.32 5 -25 5 C-24.67 4.34 -24.34 3.68 -24 3 C-22.9275 3.061875 -21.855 3.12375 -20.75 3.1875 C-16.67308162 2.98365408 -16.05796662 2.34444108 -13 0 C-11.32706064 0.30027117 -9.66014616 0.63557767 -8 1 C-2.86666667 -0.95555556 -2.86666667 -0.95555556 0 0 Z " fill="#B9A377" transform="translate(170,207)"/>
<path d="M0 0 C0.721875 0.598125 1.44375 1.19625 2.1875 1.8125 C4.85495578 4.0347289 4.85495578 4.0347289 7.625 5.3125 C10.99489753 7.70690088 11.61818063 10.14545122 13 14 C7.51686781 12.72485298 5.18464983 10.60004976 2 6 C0.6875 2.625 0.6875 2.625 0 0 Z " fill="#A3874D" transform="translate(59,159)"/>
<path d="M0 0 C0.33 0 0.66 0 1 0 C1.33551114 5.48001528 0.64469957 9.16658354 -2 14 C-4.6875 16.4375 -4.6875 16.4375 -7 18 C-8 15 -8 15 -6.75 11.875 C-5 9 -5 9 -2 8 C-1.19787372 6.12612784 -1.19787372 6.12612784 -0.8125 3.9375 C-0.65394531 3.20402344 -0.49539062 2.47054687 -0.33203125 1.71484375 C-0.22246094 1.14894531 -0.11289063 0.58304688 0 0 Z " fill="#A3874D" transform="translate(222,142)"/>
<path d="M0 0 C0.33 0.99 0.66 1.98 1 3 C2.98536627 3.70905938 4.98910922 4.36694179 7 5 C9.3981501 6.24224175 11.68208596 7.60925157 14 9 C14 9.99 14 10.98 14 12 C10.7 12 7.4 12 4 12 C4.33 11.34 4.66 10.68 5 10 C7.0625 9.375 7.0625 9.375 9 9 C7.54618103 8.30300448 6.08677047 7.61766134 4.625 6.9375 C3.81289063 6.55464844 3.00078125 6.17179687 2.1640625 5.77734375 C1.09285156 5.39255859 1.09285156 5.39255859 0 5 C-0.99 5.495 -0.99 5.495 -2 6 C-1.49396008 3.83125748 -1.00016187 2.00032373 0 0 Z " fill="#A68B52" transform="translate(39,76)"/>
<path d="M0 0 C4.87432226 2.12442806 8.11735404 5.5767664 11 10 C11.56693304 12.62761142 11.39399682 14.29830752 11 17 C6.87504288 13.44795359 4.91751826 10.13049234 2.89453125 5.0859375 C1.97298857 2.76246023 1.97298857 2.76246023 0 0 Z " fill="#A08347" transform="translate(186,72)"/>
<path d="M0 0 C0.66 0.33 1.32 0.66 2 1 C-0.2349326 6.73091655 -2.30732011 10.9590812 -7 15 C-7.57256004 11.07387404 -7.74950876 9.08011914 -5.44140625 5.75390625 C-3.68344524 3.76956797 -1.89115082 1.85738027 0 0 Z " fill="#A08347" transform="translate(90,74)"/>
<path d="M0 0 C0 0.33 0 0.66 0 1 C-0.93972656 1.09087891 -0.93972656 1.09087891 -1.8984375 1.18359375 C-3.12433594 1.30927734 -3.12433594 1.30927734 -4.375 1.4375 C-5.18710938 1.51871094 -5.99921875 1.59992188 -6.8359375 1.68359375 C-9.04272805 1.89090114 -9.04272805 1.89090114 -11 3 C-12.64255791 3.12114921 -14.29052478 3.17540767 -15.9375 3.1875 C-16.81277344 3.20167969 -17.68804687 3.21585938 -18.58984375 3.23046875 C-21 3 -21 3 -24 1 C-21.31533646 0.43830437 -18.62928854 -0.09955575 -15.9375 -0.625 C-15.18533203 -0.78484375 -14.43316406 -0.9446875 -13.65820312 -1.109375 C-8.42965125 -2.10528964 -5.0026996 -1.8469462 0 0 Z " fill="#F5F2EB" transform="translate(133,212)"/>
<path d="M0 0 C1.11375 0.680625 2.2275 1.36125 3.375 2.0625 C5.20459489 3.23498445 5.20459489 3.23498445 7 4 C7.66 3.67 8.32 3.34 9 3 C9.226875 3.886875 9.45375 4.77375 9.6875 5.6875 C11.17188513 9.43380532 13.02403485 11.33729434 16 14 C15.67 14.66 15.34 15.32 15 16 C13.02 16 11.04 16 9 16 C9.99 15.34 10.98 14.68 12 14 C8.3104753 9.04742744 8.3104753 9.04742744 3.1875 5.875 C2.465625 5.58625 1.74375 5.2975 1 5 C0.1875 2.375 0.1875 2.375 0 0 Z " fill="#C1AE87" transform="translate(78,182)"/>
<path d="M0 0 C0.33 0 0.66 0 1 0 C1.45164525 7.11341265 0.32797915 11.71546794 -3 18 C-3.33 18 -3.66 18 -4 18 C-5.30716095 12.52545464 -5.38290401 8.9286644 -2.5625 3.9375 C-1.7302975 2.61096468 -0.8834003 1.29300459 0 0 Z " fill="#A18449" transform="translate(75,143)"/>
<path d="M0 0 C7.93607955 7.72159091 7.93607955 7.72159091 8.1875 12.75 C8.125625 13.8225 8.06375 14.895 8 16 C3.92388228 12.36454366 1.78563754 9.16895076 0 4 C0 2.68 0 1.36 0 0 Z " fill="#A18348" transform="translate(204,131)"/>
<path d="M0 0 C3.19168065 3.19168065 3.16896018 6.55459649 3.25 10.9375 C3.21938582 15.08265991 2.73581446 17.71702264 0 21 C-0.33 21 -0.66 21 -1 21 C-1.09966837 14.87593228 -1.00721036 9.04326214 0 3 C0 2.01 0 1.02 0 0 Z " fill="#9E8042" transform="translate(217,109)"/>
<path d="M0 0 C0 3 0 3 -2 6 C-2.56301004 8.49809639 -2.94681019 10.99742869 -3.33984375 13.52734375 C-4.071062 16.26616714 -5.17594244 17.85785065 -7 20 C-8.0735426 9.77578475 -8.0735426 9.77578475 -5.44140625 5.421875 C-3.71090566 3.48594275 -1.96074496 1.70064614 0 0 Z " fill="#A18347" transform="translate(81,81)"/>
<path d="M0 0 C2.39763185 2.39763185 2.34280586 3.33273498 2.625 6.625 C2.69976562 7.44226563 2.77453125 8.25953125 2.8515625 9.1015625 C2.92503906 10.04128906 2.92503906 10.04128906 3 11 C0.1394109 9.64062915 -1.85927699 8.35479531 -4 6 C-4 8.31 -4 10.62 -4 13 C-4.66 12.67 -5.32 12.34 -6 12 C-6.4140625 9.71484375 -6.4140625 9.71484375 -6.625 6.9375 C-6.69976562 6.01839844 -6.77453125 5.09929687 -6.8515625 4.15234375 C-6.90054688 3.44207031 -6.94953125 2.73179687 -7 2 C-4.1394109 3.35937085 -2.14072301 4.64520469 0 7 C0 4.69 0 2.38 0 0 Z " fill="#B49C6C" transform="translate(165,237)"/>
<path d="M0 0 C3.17568033 1.42088605 5.49398464 3.16408623 8.0625 5.5 C10.33432007 7.55815561 12.43707257 9.29138171 15 11 C12.04335481 12.4783226 9.25770263 12.06032783 6 12 C4 8 2 4 0 0 Z " fill="#A2854A" transform="translate(143,214)"/>
<path d="M0 0 C0.639375 0.804375 1.27875 1.60875 1.9375 2.4375 C3.40603502 4.2750504 3.40603502 4.2750504 5 6 C5.1875 9.4375 5.1875 9.4375 5 13 C4.34 13.66 3.68 14.32 3 15 C-1.46015566 7.6302149 -1.46015566 7.6302149 -0.75 3 C-0.5025 2.01 -0.255 1.02 0 0 Z " fill="#9F8245" transform="translate(205,145)"/>
<path d="M0 0 C0.99 0.33 1.98 0.66 3 1 C2.01 6.94 1.02 12.88 0 19 C-0.99 19 -1.98 19 -3 19 C-2.54240047 12.4491015 -1.7899856 6.3246158 0 0 Z " fill="#E9E3D5" transform="translate(12,105)"/>
<path d="M0 0 C0.33 0.99 0.66 1.98 1 3 C1.66 3.33 2.32 3.66 3 4 C3.34548714 10.33393082 2.29342747 15.10261508 0 21 C-2.42080659 16.79837017 -1.74139686 13.61761305 -1 9 C-0.80373649 7.33434257 -0.61608254 5.66764574 -0.4375 4 C-0.35371094 3.236875 -0.26992187 2.47375 -0.18359375 1.6875 C-0.12300781 1.130625 -0.06242188 0.57375 0 0 Z " fill="#F5F2EC" transform="translate(215,105)"/>
<path d="M0 0 C1.9375 0.6875 1.9375 0.6875 4 2 C4.75 4.625 4.75 4.625 5 7 C0.25 8 0.25 8 -2 8 C-2.33 8.66 -2.66 9.32 -3 10 C-3.66 10 -4.32 10 -5 10 C-3.66511872 6.40608886 -2.03977277 3.24509304 0 0 Z " fill="#C7B692" transform="translate(90,226)"/>
<path d="M0 0 C0.66 0.33 1.32 0.66 2 1 C1.54625 1.721875 1.0925 2.44375 0.625 3.1875 C-0.85494358 5.74894081 -1.97217539 8.23277989 -3 11 C-6.375 11.125 -6.375 11.125 -10 11 C-10.66 10.34 -11.32 9.68 -12 9 C-11.13375 8.62875 -10.2675 8.2575 -9.375 7.875 C-5.43358021 5.68532234 -3.06365854 3.28249129 0 0 Z " fill="#A3864C" transform="translate(134,215)"/>
<path d="M0 0 C8.00945568 -0.30372936 14.69065285 -0.50848663 22 3 C18.16006851 4.29634516 14.41652527 4.00324558 10.4375 3.75 C9.42913086 3.70939453 9.42913086 3.70939453 8.40039062 3.66796875 C5.39994345 3.48323417 3.43578221 3.34308102 1.03515625 1.453125 C0.69355469 0.97359375 0.35195312 0.4940625 0 0 Z " fill="#F4F1EB" transform="translate(96,206)"/>
<path d="M0 0 C4.42049045 1.2055883 7.11421977 2.39277472 10 6 C10.69614527 7.65457063 11.36697658 9.32026681 12 11 C10.20112771 10.09755571 8.41109185 9.17748214 6.625 8.25 C5.62726563 7.73953125 4.62953125 7.2290625 3.6015625 6.703125 C0.93420875 4.95692945 0.06347095 3.94696769 -1 1 C-0.67 0.67 -0.34 0.34 0 0 Z " fill="#F9F7F3" transform="translate(66,171)"/>
<path d="M0 0 C0.99 0.495 0.99 0.495 2 1 C3.00946307 4.59464424 3.11753249 8.0214252 3.09765625 11.73828125 C3.09443359 12.80498047 3.09121094 13.87167969 3.08789062 14.97070312 C3.07951172 16.07349609 3.07113281 17.17628906 3.0625 18.3125 C3.05798828 19.43462891 3.05347656 20.55675781 3.04882812 21.71289062 C3.03707313 24.4753151 3.02064077 27.23762998 3 30 C2.67 30 2.34 30 2 30 C1.66052975 26.50056733 1.32955227 23.00037948 1 19.5 C0.90460938 18.51773438 0.80921875 17.53546875 0.7109375 16.5234375 C0.19411152 10.98601633 -0.10592737 5.56118702 0 0 Z " fill="#FEFEFE" transform="translate(268,117)"/>
<path d="M0 0 C-5.55305485 3.70203656 -12.31614367 2.25638675 -18.625 1 C-20.08553194 0.676436 -21.54480325 0.34677029 -23 0 C-23 -0.33 -23 -0.66 -23 -1 C-15.18033618 -2.52993422 -7.78514097 -1.43410491 0 0 Z " fill="#F7F4EF" transform="translate(171,213)"/>
<path d="M0 0 C8.70106186 0.02944522 14.24474532 1.42179727 21 7 C20.01 7.33 19.02 7.66 18 8 C16.66399943 7.00356624 15.33098087 6.00312896 14 5 C11.55589885 4.46528963 11.55589885 4.46528963 9 4.375 C5.8706982 4.17464836 3.02215139 3.85347794 0 3 C0 2.01 0 1.02 0 0 Z " fill="#F6F3EE" transform="translate(84,197)"/>
<path d="M0 0 C3.74392306 1.87196153 4.60045413 2.40068119 6.75 5.625 C7.39195312 6.57246094 7.39195312 6.57246094 8.046875 7.5390625 C8.51867187 8.26222656 8.51867187 8.26222656 9 9 C6.69 8.67 4.38 8.34 2 8 C2 9.32 2 10.64 2 12 C1.34 12 0.68 12 0 12 C0 8.04 0 4.08 0 0 Z " fill="#C0AC85" transform="translate(175,233)"/>
<path d="M0 0 C4.44633599 1.39741988 7.0489709 3.39318665 10 7 C10.8125 10.3125 10.8125 10.3125 11 13 C5.98756041 9.15619099 2.8313413 5.6626826 0 0 Z " fill="#9F8043" transform="translate(174,66)"/>
<path d="M0 0 C0.66 0.33 1.32 0.66 2 1 C-1.27530896 5.63720719 -4.30435607 9.68542782 -9 13 C-8.72387317 9.04218214 -8.25946652 7.30043492 -5.625 4.25 C-3 2 -3 2 0 0 Z " fill="#A08347" transform="translate(104,66)"/>
<path d="M0 0 C0.74507812 0.01353516 1.49015625 0.02707031 2.2578125 0.04101562 C4.08885416 0.07622796 5.91952169 0.13003149 7.75 0.1875 C6.17702086 2.05312642 5.29489783 3.08988443 2.84887695 3.52807617 C2.15238037 3.51236572 1.45588379 3.49665527 0.73828125 3.48046875 C-0.01904297 3.47080078 -0.77636719 3.46113281 -1.55664062 3.45117188 C-2.34232422 3.42603516 -3.12800781 3.40089844 -3.9375 3.375 C-5.13342773 3.35469727 -5.13342773 3.35469727 -6.35351562 3.33398438 C-8.31929967 3.29867089 -10.28473582 3.24486447 -12.25 3.1875 C-8.60142562 -0.47067589 -4.85390995 -0.16722835 0 0 Z " fill="#F9F7F3" transform="translate(178.25,205.8125)"/>
<path d="M0 0 C0 0.99 0 1.98 0 3 C-3.16240582 5.10827055 -4.50657469 5.33817465 -8.1875 5.625 C-9.08855469 5.69976562 -9.98960937 5.77453125 -10.91796875 5.8515625 C-11.60503906 5.90054688 -12.29210937 5.94953125 -13 6 C-5.71812081 -1.90604027 -5.71812081 -1.90604027 0 0 Z " fill="#F5F2EC" transform="translate(206,186)"/>
<path d="M0 0 C0.99 0.33 1.98 0.66 3 1 C2.16502242 8.82152466 2.16502242 8.82152466 -0.69140625 11.7109375 C-2.625 13.0625 -2.625 13.0625 -6 15 C-6.66 14.67 -7.32 14.34 -8 14 C-6.625 12.5 -6.625 12.5 -5 11 C-4.34 11 -3.68 11 -3 11 C-2.01 7.37 -1.02 3.74 0 0 Z " fill="#F7F5F1" transform="translate(181,189)"/>
<path d="M0 0 C3.53384695 0.6544161 6.16906941 1.7650548 9 4 C10.64949746 8.12374365 11.28094579 10.77659176 10 15 C9.78085938 14.48050781 9.56171875 13.96101562 9.3359375 13.42578125 C6.95822137 8.19673886 4.51938315 5.49225062 0 2 C0 1.34 0 0.68 0 0 Z " fill="#F6F4EE" transform="translate(203,118)"/>
<path d="M0 0 C2.3125 0.1875 2.3125 0.1875 5 1 C7.20970874 3.89548041 8 5.33157745 8 9 C6.68 9.33 5.36 9.66 4 10 C4 9.34 4 8.68 4 8 C4.66 8 5.32 8 6 8 C5.67 6.68 5.34 5.36 5 4 C3.68 4 2.36 4 1 4 C0.67 5.65 0.34 7.3 0 9 C-0.66 9 -1.32 9 -2 9 C-2.25 3.375 -2.25 3.375 0 0 Z " fill="#AB905B" transform="translate(246,96)"/>
<path d="M0 0 C9.73004484 -0.76681614 9.73004484 -0.76681614 12.84375 1.11328125 C14.1875 2.5 14.1875 2.5 16 5 C12.67720067 6.12021481 10.73090999 5.88681157 7.4375 4.75 C6.29087891 4.37101562 6.29087891 4.37101562 5.12109375 3.984375 C2.8932147 2.95044218 1.61075594 1.8320419 0 0 Z " fill="#E8E1D3" transform="translate(168,76)"/>
<path d="M0 0 C1.37562854 1.28965176 2.70766393 2.62689293 4 4 C4 4.66 4 5.32 4 6 C4.99 6.33 5.98 6.66 7 7 C8.1875 9.0625 8.1875 9.0625 9 11 C9.66 11 10.32 11 11 11 C11 11.66 11 12.32 11 13 C9.02 13.66 7.04 14.32 5 15 C4.87625 13.9790625 4.87625 13.9790625 4.75 12.9375 C4.07187032 10.2814921 3.3239446 8.68247494 1.9375 6.375 C0 3 0 3 0 0 Z " fill="#A2854A" transform="translate(79,39)"/>
<path d="M0 0 C0.66 0.66 1.32 1.32 2 2 C0.0891381 3.48722742 -1.82803755 4.9647404 -3.75 6.4375 C-4.28882813 6.85837891 -4.82765625 7.27925781 -5.3828125 7.71289062 C-8.17307139 9.83961234 -10.47217224 11.52905212 -14 12 C-12.64185223 7.9255567 -9.8691574 6.57978049 -6.4375 4.3125 C-5.82197266 3.89677734 -5.20644531 3.48105469 -4.57226562 3.05273438 C-3.05293329 2.02806838 -1.52707343 1.01309322 0 0 Z " fill="#F7F4EF" transform="translate(222,240)"/>
<path d="M0 0 C2.625 0.375 2.625 0.375 5 1 C5.125 3.375 5.125 3.375 5 6 C4.34 6.66 3.68 7.32 3 8 C2.01 8 1.02 8 0 8 C-0.66 6.02 -1.32 4.04 -2 2 C-1.34 1.34 -0.68 0.68 0 0 Z " fill="#F5F2EC" transform="translate(83,37)"/>
<path d="M0 0 C0.375 2.0625 0.375 2.0625 0 5 C-2.31146347 8.32451227 -5.14425979 11.14425979 -8 14 C-7.74059148 8.98476858 -6.79724578 0 0 0 Z " fill="#F6F4EF" transform="translate(222,142)"/>
<path d="M0 0 C0.99 0 1.98 0 3 0 C3.33 1.98 3.66 3.96 4 6 C4.99 5.01 5.98 4.02 7 3 C7 6.96 7 10.92 7 15 C6.34 15 5.68 15 5 15 C5 14.01 5 13.02 5 12 C4.34 12 3.68 12 3 12 C1.82428549 8.32589215 1.92633254 4.83070817 2 1 C1.34 0.67 0.68 0.34 0 0 Z " fill="#B69F70" transform="translate(139,86)"/>
<path d="M0 0 C1.79232337 0.30871122 3.58384321 0.62209064 5.375 0.9375 C6.87160156 1.19853516 6.87160156 1.19853516 8.3984375 1.46484375 C11 2 11 2 13 3 C13 3.99 13 4.98 13 6 C7.72 5.01 2.44 4.02 -3 3 C-2.01 2.67 -1.02 2.34 0 2 C0 1.34 0 0.68 0 0 Z " fill="#EBE5D9" transform="translate(164,10)"/>
<path d="M0 0 C1.60226148 4.00565371 0.47694566 7.08609399 -1 11 C-1.99 11.33 -2.98 11.66 -4 12 C-4.49230769 4.61538462 -4.49230769 4.61538462 -2 1.5 C-1.34 1.005 -0.68 0.51 0 0 Z " fill="#F8F6F1" transform="translate(82,83)"/>
<path d="M0 0 C0.66 0.66 1.32 1.32 2 2 C1.59356606 7.7916837 0.34449261 13.36096301 -1 19 C-1.99 18.67 -2.98 18.34 -4 18 C-2.68 12.06 -1.36 6.12 0 0 Z " fill="#AA8F59" transform="translate(265,161)"/>
<path d="M0 0 C0.66 1.65 1.32 3.3 2 5 C0 7 0 7 -2.625 7.125 C-3.40875 7.08375 -4.1925 7.0425 -5 7 C-5.33 5.68 -5.66 4.36 -6 3 C-2.25 0 -2.25 0 0 0 Z " fill="#F9F7F4" transform="translate(241,78)"/>
<path d="M0 0 C0.66 0.33 1.32 0.66 2 1 C-1.83970257 5.86362325 -4.0073151 8.17613938 -10 10 C-10 9.34 -10 8.68 -10 8 C-9.34 8 -8.68 8 -8 8 C-7.731875 7.401875 -7.46375 6.80375 -7.1875 6.1875 C-6.00082594 4.00152146 -4.90400887 2.58667406 -3 1 C-2.34 1 -1.68 1 -1 1 C-0.67 0.67 -0.34 0.34 0 0 Z " fill="#B49D6D" transform="translate(205,179)"/>
<path d="M0 0 C0.66 0.33 1.32 0.66 2 1 C0.44095325 4.82675111 -2.03166087 7.18007783 -5 10 C-5.66 10.66 -6.32 11.32 -7 12 C-6.8238342 6.71502591 -6.8238342 6.71502591 -6 4 C-2.9375 1.5 -2.9375 1.5 0 0 Z " fill="#F8F5F1" transform="translate(74,118)"/>
<path d="M0 0 C-2.25886817 2.56919192 -4.20020805 3.68000131 -7.4375 4.75 C-8.19933594 5.01296875 -8.96117188 5.2759375 -9.74609375 5.546875 C-12.20513089 6.04123949 -13.64672554 5.79335904 -16 5 C-10.47759424 0.88757018 -6.90703976 -0.61669998 0 0 Z " fill="#F1EDE5" transform="translate(112,76)"/>
<path d="M0 0 C1.1875 1.6875 1.1875 1.6875 2 4 C0.75 6.375 0.75 6.375 -1 9 C-1.71143088 10.98451771 -2.38991336 12.98202112 -3 15 C-3.33 15 -3.66 15 -4 15 C-4.05389087 13.04196493 -4.09274217 11.08351091 -4.125 9.125 C-4.14820313 8.03445312 -4.17140625 6.94390625 -4.1953125 5.8203125 C-4 3 -4 3 -2 1 C-1.67 1.33 -1.34 1.66 -1 2 C-0.67 1.34 -0.34 0.68 0 0 Z " fill="#B59E6F" transform="translate(212,157)"/>
<path d="M0 0 C1.43793392 0.31049726 2.8753318 0.6234776 4.3125 0.9375 C5.11300781 1.11152344 5.91351563 1.28554687 6.73828125 1.46484375 C9 2 9 2 12 3 C12.33 2.34 12.66 1.68 13 1 C13.99 2.32 14.98 3.64 16 5 C10.69249106 5.95709178 10.69249106 5.95709178 8 6 C6.3125 4.6875 6.3125 4.6875 5 3 C2.40084462 1.80972016 2.40084462 1.80972016 0 1 C0 0.67 0 0.34 0 0 Z " fill="#B39B6B" transform="translate(110,206)"/>
<path d="M0 0 C0.33 0 0.66 0 1 0 C2.125 5.625 2.125 5.625 1 9 C-1.0625 10.6875 -1.0625 10.6875 -3 12 C-2.01 12.66 -1.02 13.32 0 14 C-1.98 14 -3.96 14 -6 14 C-5.59415005 11.15905033 -5.13702954 10.12846519 -3 8.125 C-0.50852775 5.47781074 -0.32339693 3.5573662 0 0 Z " fill="#C6B490" transform="translate(193,184)"/>
<path d="M0 0 C0.66 0 1.32 0 2 0 C2.33 1.32 2.66 2.64 3 4 C3.66 3.34 4.32 2.68 5 2 C6.125 7.75 6.125 7.75 5 10 C3.125 9.4375 3.125 9.4375 1 8 C-0.25 4.375 -0.25 4.375 -1 1 C-0.67 0.67 -0.34 0.34 0 0 Z " fill="#BBA57A" transform="translate(66,154)"/>
<path d="M0 0 C2.38672669 2.96283313 4.7353371 5.94270509 7 9 C6.484375 8.690625 5.96875 8.38125 5.4375 8.0625 C2.33334577 6.70940713 -0.65115007 6.38640576 -4 6 C-3.34 5.01 -2.68 4.02 -2 3 C-2.33 2.34 -2.66 1.68 -3 1 C-2.01 0.67 -1.02 0.34 0 0 Z " fill="#B29A69" transform="translate(185,78)"/>
<path d="M0 0 C0.77772405 2.33317216 1.42415568 4.61435923 2 7 C1.01 7.33 0.02 7.66 -1 8 C-1.33 9.98 -1.66 11.96 -2 14 C-2.33 14 -2.66 14 -3 14 C-2.67 10.04 -2.34 6.08 -2 2 C-1.34 2 -0.68 2 0 2 C0 1.34 0 0.68 0 0 Z " fill="#AB915C" transform="translate(69,114)"/>
<path d="M0 0 C-1 2 -1 2 -3.50390625 2.8515625 C-5.01791016 3.23441406 -5.01791016 3.23441406 -6.5625 3.625 C-7.57441406 3.88539063 -8.58632812 4.14578125 -9.62890625 4.4140625 C-10.41136719 4.60742188 -11.19382813 4.80078125 -12 5 C-11.67 4.01 -11.34 3.02 -11 2 C-9.00390625 1.015625 -9.00390625 1.015625 -6.5625 0.25 C-5.75941406 -0.01296875 -4.95632812 -0.2759375 -4.12890625 -0.546875 C-2 -1 -2 -1 0 0 Z " fill="#A98E58" transform="translate(183,261)"/>
<path d="M0 0 C0.33 0 0.66 0 1 0 C1.33 3.63 1.66 7.26 2 11 C-0.475 10.01 -0.475 10.01 -3 9 C-2.7525 8.1028125 -2.7525 8.1028125 -2.5 7.1875 C-1.8885876 4.88655664 -1.8885876 4.88655664 -2 2 C-1.34 1.34 -0.68 0.68 0 0 Z " fill="#AF9764" transform="translate(206,98)"/>
<path d="M0 0 C0.66 0 1.32 0 2 0 C2.12375 1.134375 2.2475 2.26875 2.375 3.4375 C2.684375 5.2009375 2.684375 5.2009375 3 7 C3.66 7.33 4.32 7.66 5 8 C2.69 7.67 0.38 7.34 -2 7 C-1.34 6.67 -0.68 6.34 0 6 C-0.2784375 4.7934375 -0.2784375 4.7934375 -0.5625 3.5625 C-0.706875 2.716875 -0.85125 1.87125 -1 1 C-0.67 0.67 -0.34 0.34 0 0 Z " fill="#A3864B" transform="translate(163,33)"/>
<path d="M0 0 C0.66 3.3 1.32 6.6 2 10 C1.01 10.33 0.02 10.66 -1 11 C-1.66 7.7 -2.32 4.4 -3 1 C-1 0 -1 0 0 0 Z " fill="#B09765" transform="translate(16,166)"/>
<path d="M0 0 C1.32 0.33 2.64 0.66 4 1 C4 1.99 4 2.98 4 4 C0.7 4 -2.6 4 -6 4 C-5.67 3.34 -5.34 2.68 -5 2 C-2.4375 1.375 -2.4375 1.375 0 1 C0 0.67 0 0.34 0 0 Z " fill="#9C7D3E" transform="translate(49,84)"/>
<path d="M0 0 C0.66 0 1.32 0 2 0 C2.33 2.64 2.66 5.28 3 8 C2.34 8 1.68 8 1 8 C1 6.68 1 5.36 1 4 C-0.98 4.99 -0.98 4.99 -3 6 C-1.125 1.125 -1.125 1.125 0 0 Z " fill="#A08245" transform="translate(161,23)"/>
<path d="M0 0 C1.98 1.65 3.96 3.3 6 5 C5.34 6.32 4.68 7.64 4 9 C3.34 9 2.68 9 2 9 C1.87625 7.865625 1.7525 6.73125 1.625 5.5625 C1.41875 4.386875 1.2125 3.21125 1 2 C0.34 1.67 -0.32 1.34 -1 1 C-0.67 0.67 -0.34 0.34 0 0 Z " fill="#AE9461" transform="translate(227,59)"/>
<path d="M0 0 C0.99 0 1.98 0 3 0 C2.67 2.97 2.34 5.94 2 9 C1.01 9.33 0.02 9.66 -1 10 C-0.67 6.7 -0.34 3.4 0 0 Z " fill="#A88D56" transform="translate(12,116)"/>
<path d="M0 0 C0.33 0.66 0.66 1.32 1 2 C1.66 2 2.32 2 3 2 C2.67 3.32 2.34 4.64 2 6 C0.02 6.33 -1.96 6.66 -4 7 C-4 6.01 -4 5.02 -4 4 C-2.68 4 -1.36 4 0 4 C0 2.68 0 1.36 0 0 Z " fill="#AF9764" transform="translate(243,103)"/>
<path d="M0 0 C1.98 0 3.96 0 6 0 C4.515 1.485 4.515 1.485 3 3 C3.33 3.66 3.66 4.32 4 5 C2.02 5.33 0.04 5.66 -2 6 C-1.34 4.02 -0.68 2.04 0 0 Z " fill="#B09765" transform="translate(94,78)"/>
<path d="M0 0 C7.75 0.875 7.75 0.875 10 2 C10 2.66 10 3.32 10 4 C3.47692308 3.38461538 3.47692308 3.38461538 1.0625 1.4375 C0.711875 0.963125 0.36125 0.48875 0 0 Z " fill="#A28549" transform="translate(171,15)"/>
<path d="M0 0 C-0.33 0.66 -0.66 1.32 -1 2 C-3.32156597 2.40729228 -5.6568787 2.74438677 -8 3 C-8 2.34 -8 1.68 -8 1 C-8.66 0.67 -9.32 0.34 -10 0 C-6.33694766 -0.74926071 -3.57644848 -1.2380014 0 0 Z " fill="#ECE6DB" transform="translate(166,268)"/>
<path d="M0 0 C0.2475 0.639375 0.495 1.27875 0.75 1.9375 C1.81562433 4.18741541 1.81562433 4.18741541 4.125 4.75 C4.74375 4.8325 5.3625 4.915 6 5 C6 5.66 6 6.32 6 7 C3.36 7 0.72 7 -2 7 C-1.34 4.69 -0.68 2.38 0 0 Z " fill="#AE9562" transform="translate(172,199)"/>
<path d="M0 0 C0.99 0.66 1.98 1.32 3 2 C2.01 3.98 1.02 5.96 0 8 C-0.99 8 -1.98 8 -3 8 C-1.125 2.25 -1.125 2.25 0 0 Z " fill="#F0ECE2" transform="translate(256,196)"/>
<path d="M0 0 C0.33 0.99 0.66 1.98 1 3 C-1.52788007 5.79872437 -3.20411134 7.45773019 -7 8 C-5.74381926 4.23145777 -4.33985294 3.92041544 -1 2 C-0.67 1.34 -0.34 0.68 0 0 Z " fill="#D4C7AC" transform="translate(182,197)"/>
<path d="M0 0 C0 2.97 0 5.94 0 9 C-0.99 8.67 -1.98 8.34 -3 8 C-3.33 6.02 -3.66 4.04 -4 2 C-1 0 -1 0 0 0 Z " fill="#C0AD85" transform="translate(216,121)"/>
<path d="M0 0 C0.33 0.66 0.66 1.32 1 2 C0.67 2.66 0.34 3.32 0 4 C0.66 4 1.32 4 2 4 C0.25 7.875 0.25 7.875 -2 9 C-2.6875 6.75 -2.6875 6.75 -3 4 C-1.5625 1.6875 -1.5625 1.6875 0 0 Z " fill="#DACFB8" transform="translate(144,97)"/>
<path d="M0 0 C1.98 0 3.96 0 6 0 C5.01 2.64 4.02 5.28 3 8 C2.67 8 2.34 8 2 8 C2 6.02 2 4.04 2 2 C1.34 2 0.68 2 0 2 C0 1.34 0 0.68 0 0 Z " fill="#A58950" transform="translate(133,21)"/>
<path d="M0 0 C0 0.99 0 1.98 0 3 C-3.63 2.67 -7.26 2.34 -11 2 C-11 1.67 -11 1.34 -11 1 C-7.26562152 0.12132271 -3.83225427 -0.08912219 0 0 Z " fill="#B09866" transform="translate(126,266)"/>
<path d="M0 0 C2.7839183 1.39195915 2.97898997 3.15575779 4 6 C1.37886292 6 -0.50935112 5.68707555 -3 5 C-1.125 1.125 -1.125 1.125 0 0 Z " fill="#AB915D" transform="translate(67,45)"/>
<path d="M0 0 C0.66 0 1.32 0 2 0 C2 1.98 2 3.96 2 6 C0.68 6 -0.64 6 -2 6 C-1.125 1.125 -1.125 1.125 0 0 Z " fill="#F3EFE8" transform="translate(160,27)"/>
<path d="M0 0 C0.99 0.33 1.98 0.66 3 1 C2.67 2.98 2.34 4.96 2 7 C1.01 7.33 0.02 7.66 -1 8 C-0.67 5.36 -0.34 2.72 0 0 Z " fill="#EEE9DE" transform="translate(12,105)"/>
<path d="M0 0 C0.99 0 1.98 0 3 0 C2.34 2.64 1.68 5.28 1 8 C0.34 8 -0.32 8 -1 8 C-1.125 2.25 -1.125 2.25 0 0 Z " fill="#9C7E3F" transform="translate(245,97)"/>
<path d="M0 0 C1.98 0.99 1.98 0.99 4 2 C3.01 2.495 3.01 2.495 2 3 C1.34227572 6.02934491 1.34227572 6.02934491 1 9 C0.67 9 0.34 9 0 9 C0 6.03 0 3.06 0 0 Z " fill="#9F8245" transform="translate(207,42)"/>
<path d="M0 0 C0.66 0 1.32 0 2 0 C2 2.31 2 4.62 2 7 C1.34 7 0.68 7 0 7 C-0.38133299 5.0085944 -0.71325582 3.00720923 -1 1 C-0.67 0.67 -0.34 0.34 0 0 Z " fill="#B29968" transform="translate(267,125)"/>
<path d="M0 0 C2 3 2 3 1.75 5.125 C1 7 1 7 -1 8 C-1.33 5.69 -1.66 3.38 -2 1 C-1.34 0.67 -0.68 0.34 0 0 Z " fill="#ECE6DB" transform="translate(268,111)"/>
<path d="M0 0 C0.66 0.33 1.32 0.66 2 1 C1.34 2.65 0.68 4.3 0 6 C-0.99 6 -1.98 6 -3 6 C-1.125 1.125 -1.125 1.125 0 0 Z " fill="#C6B591" transform="translate(144,106)"/>
<path d="M0 0 C3.2542015 2.83430453 4.5206753 4.68607774 5 9 C3.5 7.625 3.5 7.625 2 6 C2 5.34 2 4.68 2 4 C1.01 4 0.02 4 -1 4 C-0.67 2.68 -0.34 1.36 0 0 Z " fill="#A08347" transform="translate(239,74)"/>
<path d="M0 0 C1.98 0.66 3.96 1.32 6 2 C6 2.66 6 3.32 6 4 C4.35 4.66 2.7 5.32 1 6 C0.4465236 3.92446352 0 2.15634036 0 0 Z " fill="#B09866" transform="translate(194,34)"/>
<path d="M0 0 C0.99 0.495 0.99 0.495 2 1 C2.40729228 3.32156597 2.74438677 5.6568787 3 8 C2.01 8 1.02 8 0 8 C0 5.36 0 2.72 0 0 Z " fill="#FAF8F5" transform="translate(268,117)"/>
<path d="M0 0 C0.66 0 1.32 0 2 0 C2 0.66 2 1.32 2 2 C2.66 2.66 3.32 3.32 4 4 C2.02 4.99 0.04 5.98 -2 7 C-1.34 4.69 -0.68 2.38 0 0 Z " fill="#A88C55" transform="translate(74,102)"/>
<path d="M0 0 C3.86107457 2.57404971 3.94319692 4.61020259 5 9 C4.01 8.67 3.02 8.34 2 8 C1.26953125 6.15234375 1.26953125 6.15234375 0.8125 3.9375 C0.65394531 3.20402344 0.49539062 2.47054687 0.33203125 1.71484375 C0.22246094 1.14894531 0.11289063 0.58304687 0 0 Z " fill="#DBD0BA" transform="translate(200,96)"/>
<path d="M0 0 C-0.3125 1.9375 -0.3125 1.9375 -1 4 C-1.99 4.33 -2.98 4.66 -4 5 C-4 4.34 -4 3.68 -4 3 C-4.99 2.67 -5.98 2.34 -7 2 C-2.25 0 -2.25 0 0 0 Z " fill="#AD935F" transform="translate(244,83)"/>
<path d="M0 0 C0.33 0.99 0.66 1.98 1 3 C1.99 3.33 2.98 3.66 4 4 C2.02 4.66 0.04 5.32 -2 6 C-2 4.35 -2 2.7 -2 1 C-1.34 0.67 -0.68 0.34 0 0 Z " fill="#AA905A" transform="translate(108,38)"/>
<path d="M0 0 C0.99 0.33 1.98 0.66 3 1 C2.34 3.31 1.68 5.62 1 8 C0.34 7.67 -0.32 7.34 -1 7 C-0.67 5.35 -0.34 3.7 0 2 C-0.66 1.67 -1.32 1.34 -2 1 C-1.34 0.67 -0.68 0.34 0 0 Z " fill="#AA905B" transform="translate(108,25)"/>
</svg>
